<svg width="74" height="86" viewBox="0 0 74 86" fill="none" xmlns="http://www.w3.org/2000/svg">
<path d="M28.0823 0.611434L28.0851 0.611538L47.8267 13.252L48.2681 13.0173C48.2682 13.0174 48.2683 13.0176 48.2684 13.0178C49.8023 15.9019 50.6568 18.5967 50.8272 21.392C50.9974 24.186 50.482 27.0469 49.3237 30.2606L49.3233 30.2614C48.7701 31.7874 48.3498 32.817 47.8173 33.7655C47.2842 34.7151 46.6482 35.5664 45.6824 36.7463C45.682 36.7469 45.6816 36.7474 45.6811 36.7479L43.7534 39.1451L45.9976 41.5256C45.9981 41.5262 45.9986 41.5267 45.9992 41.5273C47.4192 43.0074 50.8791 46.7496 53.6273 49.8328C56.4081 52.923 60.1475 57.0267 61.9317 58.9732C66.6261 64.0174 69.0761 67.1951 70.7144 70.4246L70.7151 70.4259C72.7047 74.3775 73.2923 76.4505 72.6742 78.4431C72.2113 79.9355 70.7512 81.4222 68.9962 82.5632C67.2239 83.7154 65.0481 84.5829 63.0239 84.7707L63.0239 84.7707L63.0175 84.7712C62.3932 84.8211 61.8971 84.8245 61.4214 84.7011C60.9411 84.5765 60.5258 84.3346 60.037 83.9764C59.6711 83.7167 59.1061 83.1024 58.4335 82.2939C57.7416 81.4621 56.8926 80.3706 55.9516 79.1079C54.069 76.5817 51.8072 73.3559 49.6783 70.122L49.6778 70.1214C47.4464 66.7204 44.0643 61.48 41.1588 56.9355C38.2712 52.419 35.8291 48.5509 35.4809 47.8934L35.0425 47.1004L33.8946 47.4558C33.8939 47.456 33.8931 47.4563 33.8923 47.4565C28.6376 49.1423 23.2796 49.2737 18.738 47.8649L18.7357 47.8642C3.59417 43.0863 -3.09431 26.9931 4.78975 14.0655L4.79019 14.0647C10.2786 5.09946 18.5409 0.295433 28.0823 0.611434ZM38.7323 6.71732L38.7283 6.71477C37.6418 6.01912 35.8607 5.30691 33.9702 4.75989C32.0823 4.21366 30.1459 3.84964 28.7632 3.82104L28.7626 3.82102C21.888 3.6715 14.8742 7.2198 11.0991 12.7609L11.0987 12.7614C9.09472 15.6951 7.94819 18.524 7.47514 21.6749L7.47518 21.6749L7.47428 21.6804C7.1565 23.647 7.13336 25.3113 7.4349 26.9576C7.73687 28.6062 8.36914 30.2626 9.39353 32.2085C11.4385 36.0357 13.9993 38.6518 17.8194 40.7715C23.6252 43.9622 30.64 43.3436 36.382 40.2089C42.1239 37.0742 46.5189 31.4631 47.1262 24.7681L47.1265 24.7656C47.8402 17.3212 44.5902 10.39 38.7323 6.71732ZM60.8584 65.3821L60.8541 65.3782C59.5093 64.1538 56.7937 61.5352 54.5499 59.2899C55.537 60.3697 56.5674 61.4858 57.6165 62.6092L57.6167 62.6093C60.757 65.9744 64.4227 70.1029 65.8505 71.8277L65.8535 71.8313C66.5434 72.6809 67.2278 73.5071 67.7795 74.1471C67.894 74.28 68.0023 74.4042 68.1034 74.5186C67.2512 71.6786 65.6665 69.6586 60.8584 65.3821ZM52.239 61.3332L52.2369 61.3309C50.8818 59.8653 49.6067 58.4982 48.5509 57.3758C49.88 59.3784 51.7154 62.0285 53.6576 64.7637C55.6903 67.6264 57.8372 70.5784 59.639 72.9737C61.4525 75.3846 62.8872 77.1918 63.5109 77.8013C64.6733 78.9279 65.3397 79.4815 65.8416 79.6996C66.0696 79.7986 66.2457 79.819 66.4149 79.7964C66.5955 79.7723 66.8046 79.6944 67.0912 79.537C67.3194 79.4047 67.5232 79.2707 67.6732 79.159C66.7891 77.8546 64.9273 75.5407 62.3843 72.5849C59.6393 69.3942 56.1224 65.4806 52.239 61.3332Z" fill="#9BB8ED" stroke="black"/>
</svg>
