<svg width="112" height="80" viewBox="0 0 112 80" fill="none" xmlns="http://www.w3.org/2000/svg">
<path d="M6.12578 38.4206L6.12634 38.4206C21.7749 37.3536 40.3428 30.5887 52.3054 21.5874C55.5971 19.0963 60.846 14.6064 65.2769 10.6074C67.4913 8.60883 69.4956 6.7382 70.9441 5.30633C71.6693 4.58944 72.2493 3.98837 72.6455 3.53898C72.8446 3.31317 72.9892 3.13468 73.0813 3.00417C73.1178 2.95233 73.1416 2.91442 73.1559 2.88891C73.1754 2.57401 73.3106 2.27708 73.4865 2.04565C73.671 1.80278 73.9373 1.58339 74.2578 1.48246C75.1473 1.10593 75.9727 0.996193 76.72 1.24841C77.4753 1.50333 78.0496 2.09382 78.5019 2.90134L78.502 2.90127L78.5078 2.91227C78.5537 2.9992 78.6742 3.17226 78.8919 3.44234C79.1022 3.70319 79.3828 4.02991 79.727 4.4155C80.415 5.18618 81.3455 6.17883 82.4503 7.32648C84.6594 9.62106 87.5549 12.5241 90.5787 15.4883C96.6361 21.4264 103.173 27.5756 105.74 29.582L105.746 29.5866C106.83 30.4594 107.927 31.4218 108.823 32.2651C109.705 33.0952 110.43 33.8448 110.733 34.2823L110.735 34.2853C111.172 34.9266 111.489 35.4466 111.5 36.0565C111.51 36.6451 111.229 37.2369 110.825 38.0167L110.823 38.0201C109.961 39.6515 107.978 42.3101 105.74 44.9654C103.498 47.6268 100.96 50.3312 98.9646 52.0551C96.8601 53.9187 91.4825 58.1604 87.0723 61.4978L87.0703 61.4994C74.1877 71.1463 64.9912 75.1133 48.9931 77.8096C47.7212 78.0244 46.5835 78.2227 45.563 78.4006C43.9039 78.6898 42.5547 78.925 41.4417 79.0894C39.6497 79.354 38.3912 79.4491 37.3686 79.2698C36.3102 79.0843 35.5427 78.613 34.7128 77.853C34.2031 77.3862 33.6436 76.7841 32.9651 76.0539C32.5782 75.6375 32.1526 75.1795 31.6755 74.6812L31.675 74.6807C30.4297 73.376 29.2016 72.1777 28.2365 71.3084C27.753 70.8729 27.3419 70.5257 27.031 70.2901C26.8746 70.1716 26.7529 70.0884 26.6655 70.0373C26.6387 70.0215 26.6185 70.0108 26.6043 70.0039C26.2882 69.984 26.0102 69.8241 25.8158 69.6188C25.6235 69.4159 25.4822 69.1377 25.4586 68.8236C25.4483 68.8057 25.4336 68.7817 25.4132 68.7507C25.3441 68.6457 25.2348 68.4985 25.084 68.31C24.7841 67.9351 24.3448 67.4277 23.7963 66.8237C22.7008 65.6171 21.1872 64.044 19.5233 62.4098L19.5201 62.4066C16.2308 59.1174 11.5645 53.9138 9.16109 50.7296C6.77352 47.6259 3.87884 44.2046 2.72547 43.1665L2.72362 43.1649C1.90686 42.4223 1.27531 41.8002 0.906225 41.2795C0.721783 41.0194 0.572738 40.7438 0.520321 40.4592C0.463179 40.1489 0.525123 39.8435 0.730737 39.5847C0.917736 39.3493 1.19223 39.1924 1.48613 39.0774C1.78621 38.9599 2.15566 38.8675 2.58527 38.7898C3.44435 38.6344 4.62055 38.5249 6.12578 38.4206ZM73.1721 2.85641C73.1717 2.85699 73.1706 2.85949 73.1691 2.86375C73.1718 2.85801 73.1725 2.85567 73.1721 2.85641ZM26.5789 69.9928C26.5789 69.9929 26.5805 69.9935 26.5836 69.9945C26.5804 69.9932 26.5789 69.9927 26.5789 69.9928ZM25.4793 68.8638C25.4795 68.8639 25.4783 68.8608 25.4751 68.854C25.4774 68.8603 25.479 68.8637 25.4793 68.8638ZM85.9324 16.2508L85.9275 16.2456C83.9345 14.1038 81.9269 12.0368 80.3073 10.432C79.4973 9.62943 78.7862 8.94437 78.2236 8.42421C77.6499 7.8937 77.2577 7.56042 77.0728 7.43716L77.0727 7.43729L77.0624 7.43004L75.8006 6.5421L71.03 11.4249L71.0291 11.4259C62.726 19.8788 51.8857 27.3633 40.8638 32.7358C29.8489 38.1049 18.6067 41.387 9.49924 41.387C8.62248 41.387 7.84932 41.4457 7.30699 41.5431C7.14412 41.5723 7.01169 41.6034 6.90846 41.6338C6.93837 41.6816 6.9726 41.7346 7.01128 41.793C7.20594 42.0868 7.49313 42.4852 7.85529 42.962C8.57841 43.9138 9.58527 45.1578 10.7124 46.4628L10.713 46.4635C12.4818 48.5191 15.6665 52.2969 18.5178 55.6791C19.2255 56.5186 19.9127 57.3338 20.5527 58.0922C22.1581 59.9652 23.8818 61.8969 25.3739 63.4929C26.8766 65.1003 28.1176 66.3379 28.7675 66.8465L28.7691 66.8478C32.1778 69.5389 35.3923 72.7408 36.5725 74.6035C36.5727 74.6038 36.5729 74.6042 36.5731 74.6045L37.3479 75.8152L43.4599 74.7965C43.4602 74.7964 43.4605 74.7964 43.4608 74.7963C67.4929 70.7018 88.7878 58.4797 103.733 40.1536L103.734 40.1527L106.949 36.2296L100.33 30.2894C100.33 30.2893 100.33 30.2892 100.329 30.2891C96.4414 26.8197 89.9927 20.4902 85.9324 16.2508ZM6.76512 41.379C6.76523 41.3793 6.76534 41.3796 6.76546 41.3799C6.76272 41.3711 6.76164 41.3702 6.76512 41.379Z" fill="#D5F1E0" stroke="black"/>
<mask id="path-2-outside-1_10_422" maskUnits="userSpaceOnUse" x="16.2656" y="14.2056" width="83" height="58" fill="black">
<rect fill="white" x="16.2656" y="14.2056" width="83" height="58"/>
<path d="M73.8298 17.0971C71.3853 20.0187 66.0192 24.9674 63.0977 26.9945C60.355 28.8428 59.5203 29.141 56.9565 29.0217C52.5444 28.8428 49.2652 30.0353 46.4629 32.9568C44.6146 34.8648 43.1836 35.6399 40.5006 36.3553C35.85 37.6074 19.8711 43.1523 19.3345 43.6889C19.096 43.9871 18.7382 46.0739 18.4997 48.3992C18.0824 52.6324 18.0824 52.6324 19.6922 53.0497C21.8982 53.5864 30.1858 61.6951 33.2266 66.286L35.7904 70.1615L38.9504 69.8038C41.3353 69.5057 42.4682 69.6249 43.5414 70.3404C45.5686 71.6521 46.5225 71.5329 49.3844 69.5653C53.081 67.0611 61.4879 62.9472 62.9784 62.9472C65.6019 62.9472 76.5725 56.5079 86.291 49.2339C91.7167 45.1199 96.725 41.4829 97.3213 41.1252C98.2752 40.5289 98.3348 40.1712 97.679 37.7863C97.0828 35.6399 97.0828 34.6263 97.679 33.1357C98.3348 31.347 98.2752 31.1085 96.9039 30.2738C95.2941 29.2602 87.5431 21.6285 84.6216 18.1107C82.8329 16.0239 82.654 15.9047 80.6268 16.5009C79.2555 16.8586 78.0034 16.8586 76.9302 16.4413C74.903 15.6662 75.0223 15.6662 73.8298 17.0971ZM88.3182 25.8021L94.8171 32.4798L94.7575 36.1168L94.6978 39.6942L89.9876 43.0331C87.4238 44.8218 82.7136 48.1607 79.6132 50.4263C76.5129 52.692 73.8298 54.5999 73.651 54.5999C73.4721 54.5999 73.3528 52.0958 73.3528 49.055C73.2932 46.0739 72.9951 42.4369 72.5777 41.0655C71.3853 37.0112 67.0328 32.0625 63.3362 30.5123C62.5015 30.2142 65.6019 27.2926 69.1792 25.0866C70.4909 24.2519 72.3392 22.5824 73.2336 21.2707C74.903 19.0647 75.0819 19.0051 78.3612 19.0647L81.8193 19.1243L88.3182 25.8021ZM58.3279 35.4014C60.5339 35.6399 61.4282 37.0112 59.5799 37.4285C58.9241 37.5478 59.2818 38.4421 61.2494 41.0059C63.3958 43.8678 64.1113 44.4044 65.7211 44.464C68.1656 44.464 69.7755 46.6701 69.2985 49.1743C69.0004 50.5456 69.2985 51.4399 70.6698 53.169C71.6834 54.3614 72.4585 55.6135 72.4585 55.852C72.4585 57.0445 70.0736 56.2694 68.7022 54.5999C67.6887 53.4671 66.8539 52.9305 66.2577 53.169C65.1845 53.5864 65.0056 54.3615 65.9 54.8981C66.8539 55.4943 65.9 56.5079 64.7671 56.0309C64.2305 55.7924 62.2033 55.5539 60.2358 55.5539C57.0758 55.4943 56.6584 55.375 56.6584 54.3018C56.6584 53.5864 57.1354 53.0497 57.8509 52.9305C59.9377 52.5131 60.2358 51.738 58.7452 50.1282C57.7912 49.1146 56.718 48.6377 55.3467 48.6377C52.2463 48.6377 50.2788 46.372 50.4576 43.0331C50.5769 41.1252 50.2788 39.9923 49.2652 38.7402C48.0727 37.2497 48.0131 37.0112 48.9074 36.8323C49.444 36.7131 50.398 37.0708 50.9942 37.6074C51.8886 38.4421 52.2463 38.4421 53.3195 37.7863C54.7505 36.9516 54.9293 36.3553 53.8561 35.9976C53.4984 35.8783 53.3792 35.4014 53.6176 34.984C53.9158 34.5666 54.512 34.4474 55.1082 34.6859C55.6448 34.9244 57.0758 35.2225 58.3279 35.4014ZM45.2108 48.7569C47.2976 53.7056 51.5308 57.5811 57.2546 59.8468L60.0569 60.92L52.7829 64.6166C47.1187 67.4785 45.2704 68.1343 44.4357 67.717C43.8395 67.3592 41.8123 67.1208 40.0236 67.1208C36.804 67.1208 36.6847 67.0611 35.0153 64.557C32.3323 60.7411 27.2047 55.6732 23.5081 53.2286L20.2288 51.0226L20.825 48.3992C21.3616 45.9546 21.5405 45.7757 24.4024 45.0603C27.8605 44.2256 37.6983 40.4097 41.2161 38.621L43.5414 37.4285L43.8991 41.9599C44.078 44.5237 44.6742 47.5644 45.2108 48.7569Z"/>
</mask>
<path d="M73.8298 17.0971C71.3853 20.0187 66.0192 24.9674 63.0977 26.9945C60.355 28.8428 59.5203 29.141 56.9565 29.0217C52.5444 28.8428 49.2652 30.0353 46.4629 32.9568C44.6146 34.8648 43.1836 35.6399 40.5006 36.3553C35.85 37.6074 19.8711 43.1523 19.3345 43.6889C19.096 43.9871 18.7382 46.0739 18.4997 48.3992C18.0824 52.6324 18.0824 52.6324 19.6922 53.0497C21.8982 53.5864 30.1858 61.6951 33.2266 66.286L35.7904 70.1615L38.9504 69.8038C41.3353 69.5057 42.4682 69.6249 43.5414 70.3404C45.5686 71.6521 46.5225 71.5329 49.3844 69.5653C53.081 67.0611 61.4879 62.9472 62.9784 62.9472C65.6019 62.9472 76.5725 56.5079 86.291 49.2339C91.7167 45.1199 96.725 41.4829 97.3213 41.1252C98.2752 40.5289 98.3348 40.1712 97.679 37.7863C97.0828 35.6399 97.0828 34.6263 97.679 33.1357C98.3348 31.347 98.2752 31.1085 96.9039 30.2738C95.2941 29.2602 87.5431 21.6285 84.6216 18.1107C82.8329 16.0239 82.654 15.9047 80.6268 16.5009C79.2555 16.8586 78.0034 16.8586 76.9302 16.4413C74.903 15.6662 75.0223 15.6662 73.8298 17.0971ZM88.3182 25.8021L94.8171 32.4798L94.7575 36.1168L94.6978 39.6942L89.9876 43.0331C87.4238 44.8218 82.7136 48.1607 79.6132 50.4263C76.5129 52.692 73.8298 54.5999 73.651 54.5999C73.4721 54.5999 73.3528 52.0958 73.3528 49.055C73.2932 46.0739 72.9951 42.4369 72.5777 41.0655C71.3853 37.0112 67.0328 32.0625 63.3362 30.5123C62.5015 30.2142 65.6019 27.2926 69.1792 25.0866C70.4909 24.2519 72.3392 22.5824 73.2336 21.2707C74.903 19.0647 75.0819 19.0051 78.3612 19.0647L81.8193 19.1243L88.3182 25.8021ZM58.3279 35.4014C60.5339 35.6399 61.4282 37.0112 59.5799 37.4285C58.9241 37.5478 59.2818 38.4421 61.2494 41.0059C63.3958 43.8678 64.1113 44.4044 65.7211 44.464C68.1656 44.464 69.7755 46.6701 69.2985 49.1743C69.0004 50.5456 69.2985 51.4399 70.6698 53.169C71.6834 54.3614 72.4585 55.6135 72.4585 55.852C72.4585 57.0445 70.0736 56.2694 68.7022 54.5999C67.6887 53.4671 66.8539 52.9305 66.2577 53.169C65.1845 53.5864 65.0056 54.3615 65.9 54.8981C66.8539 55.4943 65.9 56.5079 64.7671 56.0309C64.2305 55.7924 62.2033 55.5539 60.2358 55.5539C57.0758 55.4943 56.6584 55.375 56.6584 54.3018C56.6584 53.5864 57.1354 53.0497 57.8509 52.9305C59.9377 52.5131 60.2358 51.738 58.7452 50.1282C57.7912 49.1146 56.718 48.6377 55.3467 48.6377C52.2463 48.6377 50.2788 46.372 50.4576 43.0331C50.5769 41.1252 50.2788 39.9923 49.2652 38.7402C48.0727 37.2497 48.0131 37.0112 48.9074 36.8323C49.444 36.7131 50.398 37.0708 50.9942 37.6074C51.8886 38.4421 52.2463 38.4421 53.3195 37.7863C54.7505 36.9516 54.9293 36.3553 53.8561 35.9976C53.4984 35.8783 53.3792 35.4014 53.6176 34.984C53.9158 34.5666 54.512 34.4474 55.1082 34.6859C55.6448 34.9244 57.0758 35.2225 58.3279 35.4014ZM45.2108 48.7569C47.2976 53.7056 51.5308 57.5811 57.2546 59.8468L60.0569 60.92L52.7829 64.6166C47.1187 67.4785 45.2704 68.1343 44.4357 67.717C43.8395 67.3592 41.8123 67.1208 40.0236 67.1208C36.804 67.1208 36.6847 67.0611 35.0153 64.557C32.3323 60.7411 27.2047 55.6732 23.5081 53.2286L20.2288 51.0226L20.825 48.3992C21.3616 45.9546 21.5405 45.7757 24.4024 45.0603C27.8605 44.2256 37.6983 40.4097 41.2161 38.621L43.5414 37.4285L43.8991 41.9599C44.078 44.5237 44.6742 47.5644 45.2108 48.7569Z" fill="#D5F1E0"/>
<path d="M73.8298 17.0971L74.598 17.7373L74.5968 17.7389L73.8298 17.0971ZM63.0977 26.9945L63.6678 27.8162L63.6565 27.8238L63.0977 26.9945ZM56.9565 29.0217L56.997 28.0225L57.003 28.0228L56.9565 29.0217ZM46.4629 32.9568L47.1846 33.6491L47.1811 33.6526L46.4629 32.9568ZM40.5006 36.3553L40.2406 35.3897L40.2429 35.3891L40.5006 36.3553ZM19.3345 43.6889L18.5536 43.0643L18.5882 43.021L18.6274 42.9818L19.3345 43.6889ZM18.4997 48.3992L17.5046 48.301L17.505 48.2971L18.4997 48.3992ZM19.6922 53.0497L19.4558 54.0214L19.4485 54.0196L19.4412 54.0177L19.6922 53.0497ZM33.2266 66.286L34.0603 65.7338L34.0606 65.7343L33.2266 66.286ZM35.7904 70.1615L35.9029 71.1552L35.2943 71.2241L34.9564 70.7133L35.7904 70.1615ZM38.9504 69.8038L39.0744 70.7961L39.0629 70.7974L38.9504 69.8038ZM43.5414 70.3404L42.9981 71.18L42.9867 71.1724L43.5414 70.3404ZM49.3844 69.5653L48.8179 68.7412L48.8236 68.7374L49.3844 69.5653ZM86.291 49.2339L86.8952 50.0307L86.8902 50.0345L86.291 49.2339ZM97.3213 41.1252L97.8513 41.9732L97.8435 41.978L97.8358 41.9827L97.3213 41.1252ZM97.679 37.7863L98.6425 37.5186L98.6432 37.5211L97.679 37.7863ZM97.679 33.1357L98.6179 33.4799L98.6129 33.4936L98.6075 33.5071L97.679 33.1357ZM96.9039 30.2738L96.3839 31.128L96.3775 31.1241L96.3711 31.12L96.9039 30.2738ZM84.6216 18.1107L85.3808 17.4599L85.3859 17.4658L85.3909 17.4718L84.6216 18.1107ZM80.6268 16.5009L80.909 17.4603L80.8942 17.4646L80.8793 17.4685L80.6268 16.5009ZM76.9302 16.4413L77.2874 15.5072L77.2927 15.5093L76.9302 16.4413ZM88.3182 25.8021L89.0348 25.1046L89.0348 25.1046L88.3182 25.8021ZM94.8171 32.4798L95.5337 31.7824L95.8238 32.0804L95.817 32.4962L94.8171 32.4798ZM94.7575 36.1168L95.7573 36.1332L95.7573 36.1335L94.7575 36.1168ZM94.6978 39.6942L95.6977 39.7109L95.6893 40.2172L95.2761 40.51L94.6978 39.6942ZM89.9876 43.0331L90.566 43.8489L90.5598 43.8532L89.9876 43.0331ZM73.3528 49.055L74.3526 49.035L74.3528 49.045V49.055H73.3528ZM72.5777 41.0655L71.621 41.3567L71.6184 41.3477L72.5777 41.0655ZM63.3362 30.5123L63.6725 29.5705L63.698 29.5796L63.7229 29.5901L63.3362 30.5123ZM69.1792 25.0866L69.7161 25.9303L69.7101 25.9341L69.7041 25.9378L69.1792 25.0866ZM73.2336 21.2707L72.4074 20.7074L72.4213 20.687L72.4362 20.6673L73.2336 21.2707ZM78.3612 19.0647L78.3439 20.0645L78.343 20.0645L78.3612 19.0647ZM81.8193 19.1243L81.8365 18.1245L82.2485 18.1316L82.5359 18.4269L81.8193 19.1243ZM58.3279 35.4014L58.2204 36.3956L58.2034 36.3937L58.1864 36.3913L58.3279 35.4014ZM59.5799 37.4285L59.8002 38.404L59.7796 38.4086L59.7588 38.4124L59.5799 37.4285ZM61.2494 41.0059L62.0427 40.3971L62.0494 40.4059L61.2494 41.0059ZM65.7211 44.464V45.464H65.7026L65.6841 45.4634L65.7211 44.464ZM69.2985 49.1743L70.2808 49.3614L70.2784 49.3741L70.2757 49.3867L69.2985 49.1743ZM70.6698 53.169L69.9079 53.8166L69.8969 53.8037L69.8863 53.7904L70.6698 53.169ZM68.7022 54.5999L69.4475 53.9331L69.4616 53.9489L69.475 53.9652L68.7022 54.5999ZM66.2577 53.169L66.6291 54.0975L66.6202 54.101L66.2577 53.169ZM65.9 54.8981L66.4145 54.0406L66.4223 54.0452L66.43 54.0501L65.9 54.8981ZM64.7671 56.0309L64.3791 56.9525L64.37 56.9487L64.361 56.9447L64.7671 56.0309ZM60.2358 55.5539V56.5539H60.2264L60.2169 56.5537L60.2358 55.5539ZM57.8509 52.9305L58.047 53.9111L58.0312 53.9142L58.0153 53.9169L57.8509 52.9305ZM58.7452 50.1282L59.4734 49.4428L59.479 49.4488L58.7452 50.1282ZM50.4576 43.0331L49.459 42.9796L49.4596 42.9707L50.4576 43.0331ZM49.2652 38.7402L48.4879 39.3695L48.4843 39.3649L49.2652 38.7402ZM48.9074 36.8323L49.1244 37.8085L49.114 37.8108L49.1035 37.8129L48.9074 36.8323ZM50.9942 37.6074L51.6632 36.8641L51.6699 36.8702L51.6766 36.8764L50.9942 37.6074ZM53.3195 37.7863L52.7981 36.933L52.8068 36.9277L52.8157 36.9225L53.3195 37.7863ZM53.8561 35.9976L53.5399 36.9463L53.5399 36.9463L53.8561 35.9976ZM53.6176 34.984L52.7494 34.4879L52.7745 34.4439L52.8039 34.4028L53.6176 34.984ZM55.1082 34.6859L55.4796 33.7574L55.4971 33.7644L55.5144 33.7721L55.1082 34.6859ZM45.2108 48.7569L46.1227 48.3465L46.1276 48.3574L46.1322 48.3683L45.2108 48.7569ZM57.2546 59.8468L56.897 60.7807L56.8866 60.7766L57.2546 59.8468ZM60.0569 60.92L60.4146 59.9861L62.5172 60.7914L60.51 61.8115L60.0569 60.92ZM52.7829 64.6166L53.236 65.5081L53.2339 65.5091L52.7829 64.6166ZM44.4357 67.717L43.9885 68.6114L43.9542 68.5942L43.9212 68.5745L44.4357 67.717ZM35.0153 64.557L35.8333 63.9818L35.8405 63.9919L35.8473 64.0023L35.0153 64.557ZM23.5081 53.2286L22.9565 54.0628L22.9499 54.0583L23.5081 53.2286ZM20.2288 51.0226L19.6706 51.8523L19.1017 51.4696L19.2537 50.8009L20.2288 51.0226ZM20.825 48.3992L21.8018 48.6136L21.8002 48.6208L20.825 48.3992ZM24.4024 45.0603L24.1599 44.0901L24.1678 44.0882L24.4024 45.0603ZM41.2161 38.621L41.6724 39.5108L41.6693 39.5124L41.2161 38.621ZM43.5414 37.4285L43.0851 36.5387L44.4202 35.854L44.5383 37.3498L43.5414 37.4285ZM43.8991 41.9599L44.896 41.8812L44.8967 41.8903L43.8991 41.9599ZM74.5968 17.7389C72.099 20.724 66.6677 25.7346 63.6678 27.8161L62.5276 26.1729C65.3708 24.2002 70.6716 19.3133 73.0629 16.4554L74.5968 17.7389ZM63.6565 27.8238C62.2898 28.7449 61.293 29.3557 60.2763 29.6946C59.2275 30.0442 58.23 30.082 56.9101 30.0206L57.003 28.0228C58.2468 28.0806 58.9486 28.029 59.6438 27.7973C60.371 27.5549 61.1629 27.0925 62.5388 26.1653L63.6565 27.8238ZM56.916 30.0209C52.7504 29.852 49.7625 30.9614 47.1846 33.6491L45.7412 32.2646C48.7678 29.1092 52.3384 27.8337 56.997 28.0225L56.916 30.0209ZM47.1811 33.6526C46.2122 34.6528 45.3177 35.3918 44.2864 35.9741C43.2597 36.5537 42.1415 36.9527 40.7583 37.3216L40.2429 35.3891C41.5427 35.0425 42.4816 34.6962 43.3032 34.2324C44.1201 33.7713 44.8653 33.1688 45.7447 32.261L47.1811 33.6526ZM40.7606 37.3209C38.4745 37.9364 33.3494 39.6241 28.7024 41.2353C26.3849 42.0388 24.2 42.8185 22.564 43.4296C21.7447 43.7355 21.0707 43.9964 20.589 44.1954C20.3468 44.2954 20.1641 44.3753 20.0399 44.4346C19.977 44.4646 19.9407 44.4837 19.9241 44.4932C19.8817 44.5173 19.9548 44.4829 20.0416 44.3961L18.6274 42.9818C18.7477 42.8615 18.8845 42.7837 18.9342 42.7553C19.0099 42.7122 19.0944 42.6697 19.1791 42.6293C19.3502 42.5477 19.5704 42.4522 19.8255 42.3469C20.3385 42.135 21.0372 41.8648 21.8642 41.556C23.5204 40.9373 25.7215 40.1519 28.0472 39.3456C32.6865 37.7371 37.8761 36.0263 40.2406 35.3897L40.7606 37.3209ZM20.1153 44.3136C20.1931 44.2164 20.2063 44.1508 20.1787 44.226C20.1612 44.2737 20.1361 44.3541 20.1051 44.474C20.0436 44.7118 19.9744 45.0445 19.9021 45.4567C19.7581 46.2773 19.612 47.3559 19.4945 48.5012L17.505 48.2971C17.626 47.1171 17.778 45.9897 17.9321 45.1111C18.0089 44.6736 18.0887 44.2833 18.1688 43.9734C18.2086 43.8194 18.2524 43.6697 18.3011 43.5371C18.3396 43.4321 18.4162 43.236 18.5536 43.0643L20.1153 44.3136ZM19.4949 48.4973C19.3897 49.5649 19.3141 50.3333 19.2821 50.9087C19.2488 51.506 19.2717 51.7793 19.3044 51.907C19.3162 51.9528 19.3202 51.9414 19.2967 51.9101C19.2716 51.8767 19.2489 51.8654 19.2618 51.8727C19.3401 51.9172 19.4895 51.9641 19.9432 52.0817L19.4412 54.0177C19.09 53.9267 18.6357 53.8171 18.2743 53.6119C17.8084 53.3474 17.5062 52.946 17.3671 52.4038C17.2508 51.9502 17.2514 51.4037 17.2852 50.7974C17.3202 50.1691 17.4011 49.35 17.5046 48.301L19.4949 48.4973ZM19.9286 52.0781C20.3712 52.1857 20.8566 52.4464 21.3189 52.7403C21.8037 53.0485 22.351 53.451 22.9346 53.9177C24.1032 54.8522 25.4666 56.0837 26.8456 57.4326C29.5925 60.1195 32.4826 63.3517 34.0603 65.7338L32.3929 66.8382C30.9299 64.6294 28.1557 61.5118 25.4471 58.8624C24.0985 57.5432 22.7862 56.3599 21.6855 55.4797C21.1344 55.039 20.6485 54.6841 20.2459 54.4282C19.8209 54.158 19.5647 54.0479 19.4558 54.0214L19.9286 52.0781ZM34.0606 65.7343L36.6244 69.6098L34.9564 70.7133L32.3926 66.8378L34.0606 65.7343ZM35.6779 69.1679L38.8379 68.8101L39.0629 70.7974L35.9029 71.1552L35.6779 69.1679ZM38.8264 68.8115C41.2573 68.5076 42.7062 68.5817 44.0961 69.5083L42.9867 71.1724C42.2302 70.6681 41.4133 70.5037 39.0744 70.7961L38.8264 68.8115ZM44.0846 69.5008C45.0432 70.1211 45.5328 70.2551 46.0194 70.1911C46.6007 70.1146 47.3717 69.7355 48.8179 68.7413L49.9509 70.3893C48.5352 71.3627 47.3983 72.0269 46.2803 72.174C45.0677 72.3336 44.0667 71.8714 42.9981 71.18L44.0846 69.5008ZM48.8236 68.7374C50.7288 67.4467 53.8029 65.7683 56.5703 64.4184C57.9582 63.7414 59.2872 63.138 60.372 62.7014C60.9134 62.4835 61.4065 62.302 61.8227 62.1734C62.2056 62.0551 62.6273 61.9472 62.9784 61.9472V63.9472C62.9858 63.9472 62.9431 63.9477 62.829 63.972C62.723 63.9946 62.5849 64.0312 62.4133 64.0842C62.0699 64.1904 61.6329 64.3499 61.1187 64.5568C60.0925 64.9698 58.8093 65.5514 57.4471 66.2159C54.7143 67.549 51.7367 69.1797 49.9453 70.3932L48.8236 68.7374ZM62.9784 61.9472C63.1403 61.9472 63.4739 61.8894 64.0181 61.7077C64.5406 61.5333 65.1858 61.2696 65.941 60.9199C67.4499 60.2212 69.3403 59.2065 71.4673 57.9562C75.7188 55.457 80.8603 52.0495 85.6918 48.4333L86.8902 50.0345C82.0032 53.6922 76.8001 57.1414 72.4808 59.6804C70.3225 60.9491 68.3708 61.9988 66.7813 62.7348C65.9872 63.1025 65.2689 63.3987 64.6514 63.6048C64.0555 63.8037 63.4724 63.9472 62.9784 63.9472V61.9472ZM85.6868 48.437C88.4043 46.3766 91.0172 44.4355 93.0263 42.9641C95.0062 41.5142 96.458 40.4769 96.8068 40.2677L97.8358 41.9827C97.5882 42.1312 96.2378 43.0912 94.208 44.5777C92.2075 46.0428 89.6034 47.9772 86.8952 50.0307L85.6868 48.437ZM96.7913 40.2772C97.0122 40.1391 97.0818 40.0732 97.1051 40.0453C97.1107 40.0386 97.1075 40.0413 97.1043 40.0491C97.1015 40.0558 97.1063 40.0482 97.1101 40.0143C97.1195 39.9311 97.1165 39.7596 97.0515 39.4166C96.9878 39.0809 96.8779 38.6446 96.7148 38.0514L98.6432 37.5211C98.808 38.1205 98.9366 38.6232 99.0164 39.0439C99.0948 39.4574 99.1403 39.8598 99.0975 40.2387C99.0507 40.6535 98.9011 41.0157 98.6385 41.3293C98.4029 41.6108 98.1073 41.8131 97.8513 41.9732L96.7913 40.2772ZM96.7155 38.0539C96.4097 36.9532 96.2318 36.0595 96.2318 35.215C96.2318 34.3461 96.4195 33.5918 96.7505 32.7643L98.6075 33.5071C98.3422 34.1702 98.2318 34.6679 98.2318 35.215C98.2318 35.7866 98.3521 36.473 98.6425 37.5186L96.7155 38.0539ZM96.7401 32.7914C96.9049 32.3422 97.0029 32.0468 97.0523 31.8297C97.1011 31.6151 97.0776 31.5756 97.086 31.607C97.1001 31.6591 97.1257 31.6531 97.0305 31.5682C96.9174 31.4674 96.7277 31.3372 96.3839 31.128L97.4238 29.4196C97.7658 29.6277 98.0977 29.8404 98.361 30.075C98.6422 30.3255 98.8989 30.6474 99.0173 31.087C99.13 31.506 99.0842 31.9136 99.0025 32.2729C98.9215 32.6297 98.7811 33.0349 98.6179 33.4799L96.7401 32.7914ZM96.3711 31.12C95.8785 30.8099 95.0245 30.0768 94.0418 29.1785C93.0308 28.2543 91.81 27.0859 90.5518 25.8426C88.0428 23.3635 85.3458 20.5479 83.8523 18.7496L85.3909 17.4718C86.8189 19.1913 89.4581 21.9504 91.9575 24.42C93.2034 25.6511 94.4048 26.8006 95.3912 27.7023C96.4059 28.6299 97.1244 29.2309 97.4367 29.4276L96.3711 31.12ZM83.8623 18.7615C83.4088 18.2324 83.0905 17.8677 82.8263 17.6076C82.5632 17.3486 82.418 17.2596 82.3309 17.2235C82.1907 17.1654 81.9967 17.1403 80.909 17.4603L80.3447 15.5415C81.2841 15.2652 82.1932 15.0016 83.0964 15.3758C83.5309 15.5559 83.8926 15.8507 84.2294 16.1824C84.5652 16.5129 84.94 16.9457 85.3808 17.4599L83.8623 18.7615ZM80.8793 17.4685C79.3708 17.862 77.8927 17.8885 76.5678 17.3733L77.2927 15.5093C78.1142 15.8288 79.1402 15.8553 80.3744 15.5333L80.8793 17.4685ZM76.5731 17.3753C76.0437 17.1729 75.7194 17.047 75.4743 16.9744C75.2285 16.9016 75.2158 16.9331 75.2819 16.9186C75.3688 16.8994 75.3737 16.8541 75.2411 16.9873C75.0936 17.1355 74.92 17.3509 74.598 17.7373L73.0616 16.4569C73.3358 16.1279 73.5945 15.8067 73.8234 15.5766C74.0672 15.3316 74.3925 15.0664 74.8521 14.9653C75.2908 14.8688 75.703 14.9562 76.0422 15.0567C76.3821 15.1574 76.8031 15.3221 77.2873 15.5072L76.5731 17.3753ZM89.0348 25.1046L95.5337 31.7824L94.1005 33.1773L87.6016 26.4995L89.0348 25.1046ZM95.817 32.4962L95.7573 36.1332L93.7576 36.1004L93.8172 32.4635L95.817 32.4962ZM95.7573 36.1335L95.6977 39.7109L93.698 39.6776L93.7576 36.1002L95.7573 36.1335ZM95.2761 40.51L90.5659 43.8489L89.4093 42.2173L94.1195 38.8784L95.2761 40.51ZM90.5598 43.8532C88 45.6392 83.296 48.9736 80.2033 51.2337L79.0232 49.6189C82.1313 47.3477 86.8477 44.0044 89.4155 42.213L90.5598 43.8532ZM80.2033 51.2337C78.6511 52.368 77.1997 53.4154 76.1119 54.1807C75.5691 54.5625 75.1102 54.8787 74.7723 55.1014C74.605 55.2117 74.4563 55.3063 74.3371 55.3762C74.2792 55.4101 74.2127 55.4475 74.1464 55.4793C74.114 55.4949 74.0655 55.517 74.008 55.5373C73.9756 55.5488 73.8344 55.5999 73.651 55.5999V53.5999C73.4787 53.5999 73.3535 53.6474 73.342 53.6515C73.3054 53.6644 73.2824 53.6756 73.2802 53.6766C73.2744 53.6794 73.2869 53.6735 73.3256 53.6509C73.3995 53.6075 73.5139 53.5354 73.6718 53.4314C73.9841 53.2256 74.4233 52.9232 74.9612 52.5449C76.0347 51.7897 77.475 50.7504 79.0232 49.6189L80.2033 51.2337ZM73.651 55.5999C73.3321 55.5999 73.1009 55.4556 72.9725 55.3423C72.851 55.235 72.7808 55.1224 72.7459 55.0601C72.6757 54.9349 72.6397 54.8142 72.6223 54.7505C72.5831 54.6075 72.5568 54.4423 72.5371 54.2888C72.4958 53.9684 72.4626 53.5303 72.4362 53.0195C72.3828 51.9904 72.3528 50.5857 72.3528 49.055H74.3528C74.3528 50.5651 74.3825 51.9329 74.4335 52.916C74.4592 53.4114 74.4893 53.7894 74.5207 54.0335C74.5284 54.0929 74.5355 54.1393 74.5416 54.174C74.5481 54.2107 74.5519 54.2246 74.5513 54.2223C74.5508 54.2206 74.5475 54.2083 74.5402 54.1888C74.5338 54.1714 74.5184 54.132 74.4904 54.082C74.4662 54.0388 74.4067 53.9406 74.2962 53.843C74.1788 53.7393 73.9586 53.5999 73.651 53.5999V55.5999ZM72.353 49.075C72.3237 47.6068 72.2355 45.9763 72.1037 44.5485C71.9692 43.0914 71.7965 41.9332 71.6211 41.3567L73.5344 40.7744C73.7763 41.5692 73.9614 42.9151 74.0952 44.3647C74.2317 45.8435 74.3224 47.5221 74.3526 49.035L72.353 49.075ZM71.6184 41.3477C71.076 39.5035 69.7832 37.3782 68.1442 35.5092C66.5026 33.6373 64.6084 32.1302 62.9495 31.4345L63.7229 29.5901C65.7605 30.4446 67.8909 32.1869 69.6479 34.1905C71.4074 36.197 72.887 38.5732 73.5371 40.7834L71.6184 41.3477ZM62.9998 31.454C62.7735 31.3732 62.5248 31.2118 62.3604 30.929C62.2019 30.6564 62.1853 30.3797 62.2064 30.1793C62.2442 29.82 62.4229 29.5067 62.5571 29.3015C62.8535 28.8485 63.3456 28.3207 63.9209 27.7839C65.0925 26.6903 66.8159 25.3691 68.6543 24.2354L69.7041 25.9378C67.9652 27.0101 66.3497 28.2527 65.2855 29.246C64.7428 29.7525 64.3927 30.1489 64.2308 30.3965C64.1358 30.5416 64.1813 30.5226 64.1954 30.3888C64.2046 30.3011 64.2034 30.1199 64.0895 29.9239C63.9697 29.7178 63.7946 29.6141 63.6725 29.5705L62.9998 31.454ZM68.6424 24.2429C69.8647 23.4651 71.6046 21.8848 72.4074 20.7074L74.0598 21.8341C73.0739 23.2801 71.1172 25.0387 69.7161 25.9303L68.6424 24.2429ZM72.4362 20.6673C73.227 19.6223 73.8462 18.8061 74.801 18.3984C75.2802 18.1938 75.7892 18.1111 76.3486 18.076C76.9006 18.0413 77.569 18.0501 78.3793 18.0649L78.343 20.0645C77.5137 20.0494 76.93 20.0434 76.474 20.072C76.0254 20.1002 75.7705 20.1591 75.5864 20.2378C75.2146 20.3965 74.9097 20.7131 74.031 21.8742L72.4362 20.6673ZM78.3784 18.0648L81.8365 18.1245L81.8021 20.1242L78.3439 20.0645L78.3784 18.0648ZM82.5359 18.4269L89.0348 25.1046L87.6016 26.4995L81.1027 19.8218L82.5359 18.4269ZM58.4353 34.4072C59.0774 34.4766 59.6549 34.6312 60.1333 34.8521C60.5923 35.0641 61.0434 35.3762 61.3198 35.8139C61.4639 36.0421 61.5747 36.3291 61.5777 36.6577C61.5807 36.9962 61.4681 37.3079 61.2776 37.5649C60.9244 38.0412 60.3504 38.2797 59.8002 38.404L59.3597 36.4531C59.7336 36.3687 59.741 36.2793 59.671 36.3737C59.6221 36.4396 59.5766 36.5469 59.5777 36.6755C59.5788 36.7943 59.6188 36.8661 59.6288 36.8819C59.6369 36.8947 59.5662 36.7932 59.2949 36.6679C59.0429 36.5516 58.6813 36.4454 58.2204 36.3956L58.4353 34.4072ZM59.7588 38.4124C59.7851 38.4076 59.898 38.3834 60.0221 38.2802C60.1631 38.1629 60.2412 38.0082 60.2682 37.8721C60.3057 37.6837 60.2275 37.6359 60.3417 37.8876C60.5413 38.328 61.0536 39.1083 62.0427 40.3971L60.4561 41.6147C59.4776 40.3397 58.8273 39.391 58.5201 38.7134C58.3808 38.4062 58.2132 37.9522 58.3066 37.4824C58.3616 37.2056 58.504 36.9415 58.7432 36.7425C58.9656 36.5575 59.2108 36.4793 59.4011 36.4447L59.7588 38.4124ZM62.0494 40.4059C63.1319 41.8492 63.772 42.5895 64.2966 42.9936C64.7382 43.3337 65.1011 43.4404 65.7581 43.4647L65.6841 45.4634C64.7312 45.4281 63.9315 45.2367 63.0763 44.5781C62.3041 43.9835 61.5133 43.0245 60.4494 41.6059L62.0494 40.4059ZM65.7211 43.464C68.8909 43.464 70.8561 46.3411 70.2808 49.3614L68.3161 48.9871C68.6948 46.9991 67.4404 45.464 65.7211 45.464V43.464ZM70.2757 49.3867C70.155 49.9416 70.1685 50.3162 70.3044 50.7143C70.4559 51.1579 70.7845 51.7043 71.4533 52.5476L69.8863 53.7904C69.1838 52.9046 68.6776 52.1393 68.4117 51.3606C68.1303 50.5365 68.1438 49.7783 68.3213 48.9618L70.2757 49.3867ZM71.4317 52.5213C71.9665 53.1504 72.4389 53.7956 72.7821 54.3224C72.9529 54.5846 73.0998 54.8297 73.208 55.0371C73.2616 55.1397 73.3136 55.248 73.3548 55.3537C73.3817 55.4227 73.4585 55.62 73.4585 55.852H71.4585C71.4585 56.0245 71.511 56.1304 71.4916 56.0807C71.4865 56.0676 71.47 56.0296 71.435 55.9626C71.3663 55.8309 71.256 55.6438 71.1064 55.4141C70.8086 54.9571 70.3867 54.38 69.9079 53.8166L71.4317 52.5213ZM73.4585 55.852C73.4585 56.1704 73.3766 56.5142 73.1506 56.8127C72.9248 57.1109 72.6216 57.2763 72.3353 57.3568C71.807 57.5055 71.2373 57.3994 70.7812 57.2488C69.8267 56.9337 68.7306 56.2099 67.9295 55.2347L69.475 53.9652C70.0452 54.6594 70.8273 55.1579 71.4081 55.3496C71.7196 55.4524 71.8318 55.4208 71.7936 55.4316C71.7522 55.4432 71.646 55.4866 71.5561 55.6054C71.4658 55.7246 71.4585 55.8317 71.4585 55.852H73.4585ZM67.957 55.2667C67.4773 54.7306 67.0933 54.3983 66.809 54.2277C66.5092 54.0479 66.5007 54.1488 66.6291 54.0975L65.8863 52.2405C66.6109 51.9507 67.3179 52.2007 67.838 52.5127C68.3734 52.834 68.9136 53.3365 69.4475 53.9331L67.957 55.2667ZM66.6202 54.101C66.435 54.173 66.3371 54.2423 66.296 54.2797C66.2552 54.3167 66.2981 54.2951 66.3188 54.1983C66.3292 54.1499 66.3303 54.0973 66.3211 54.0467C66.3121 53.9972 66.2959 53.9638 66.2865 53.948C66.2708 53.9216 66.2872 53.9642 66.4145 54.0406L65.3855 55.7555C64.7673 55.3846 64.1666 54.6969 64.3632 53.7793C64.5364 52.9712 65.2458 52.4896 65.8953 52.237L66.6202 54.101ZM66.43 54.0501C66.8345 54.3029 67.1876 54.6991 67.2725 55.238C67.358 55.7801 67.1372 56.2512 66.8331 56.564C66.239 57.1751 65.2598 57.3234 64.3791 56.9525L65.1552 55.1093C65.4073 55.2154 65.4715 55.0954 65.3991 55.1699C65.3559 55.2143 65.2655 55.3501 65.2969 55.5494C65.3278 55.7454 65.4424 55.7913 65.37 55.7461L66.43 54.0501ZM64.361 56.9447C64.3626 56.9454 64.3292 56.9314 64.2427 56.9085C64.1619 56.8871 64.0558 56.8633 63.924 56.8384C63.6604 56.7887 63.3221 56.7399 62.9296 56.6971C62.1451 56.6115 61.1827 56.5539 60.2358 56.5539V54.5539C61.2565 54.5539 62.2914 54.6156 63.1465 54.7089C63.5739 54.7555 63.966 54.811 64.2948 54.8731C64.5998 54.9306 64.9254 55.0069 65.1733 55.1171L64.361 56.9447ZM60.2169 56.5537C59.4271 56.5388 58.7832 56.5199 58.2688 56.4812C57.7679 56.4436 57.3136 56.3829 56.9374 56.2538C56.5306 56.1141 56.1371 55.8664 55.8941 55.4189C55.68 55.0245 55.6584 54.6015 55.6584 54.3018H57.6584C57.6584 54.5388 57.689 54.5332 57.6519 54.4648C57.5859 54.3433 57.4942 54.3304 57.5868 54.3621C57.71 54.4044 57.9524 54.4518 58.4186 54.4868C58.8712 54.5209 59.4645 54.5392 60.2547 54.5541L60.2169 56.5537ZM55.6584 54.3018C55.6584 53.0698 56.5167 52.1391 57.6865 51.9441L58.0153 53.9169C57.8648 53.942 57.782 54.0019 57.7389 54.0511C57.6978 54.0981 57.6584 54.1738 57.6584 54.3018H55.6584ZM57.6548 51.9499C58.1371 51.8534 58.4402 51.7497 58.6158 51.6576C58.7907 51.5657 58.7293 51.5452 58.6909 51.6603C58.6517 51.7779 58.7148 51.8009 58.629 51.625C58.542 51.4467 58.3559 51.1796 58.0115 50.8076L59.479 49.4488C59.8798 49.8817 60.2154 50.3152 60.4265 50.7481C60.6388 51.1833 60.7765 51.728 60.5882 52.2928C60.4008 52.8551 59.9667 53.2072 59.5454 53.4283C59.1247 53.6492 58.608 53.7989 58.047 53.9111L57.6548 51.9499ZM58.017 50.8136C57.2453 49.9937 56.4327 49.6377 55.3467 49.6377V47.6377C57.0034 47.6377 58.3372 48.2356 59.4734 49.4429L58.017 50.8136ZM55.3467 49.6377C53.5409 49.6377 51.9864 48.9702 50.9185 47.7443C49.8582 46.5274 49.3586 44.8548 49.4591 42.9796L51.4562 43.0866C51.3778 44.5502 51.7725 45.68 52.4264 46.4306C53.0726 47.1723 54.0521 47.6377 55.3467 47.6377V49.6377ZM49.4596 42.9707C49.5155 42.0758 49.468 41.4372 49.3219 40.9056C49.1794 40.3867 48.9269 39.9117 48.4879 39.3694L50.0424 38.111C50.6171 38.8209 51.0204 39.5383 51.2505 40.3758C51.4771 41.2007 51.519 42.0825 51.4557 43.0955L49.4596 42.9707ZM48.4843 39.3649C48.1858 38.9919 47.9365 38.6704 47.753 38.4C47.5895 38.1591 47.3905 37.837 47.3221 37.4853C47.2829 37.2836 47.2766 37.0253 47.3824 36.7559C47.4896 36.4832 47.6733 36.2967 47.8464 36.176C48.1388 35.9721 48.4962 35.8948 48.7113 35.8517L49.1035 37.8129C49.0093 37.8317 48.9551 37.8461 48.9264 37.8555C48.8932 37.8663 48.929 37.8593 48.9903 37.8166C49.0619 37.7667 49.1752 37.6621 49.2439 37.4872C49.3113 37.3157 49.2985 37.171 49.2854 37.1035C49.2739 37.0444 49.2597 37.0288 49.2824 37.0732C49.3029 37.1134 49.3412 37.1787 49.4079 37.2769C49.543 37.476 49.7483 37.7433 50.046 38.1156L48.4843 39.3649ZM48.6905 35.8561C49.2355 35.735 49.8256 35.8685 50.2776 36.0368C50.76 36.2165 51.26 36.5012 51.6632 36.8641L50.3253 38.3507C50.1322 38.177 49.8572 38.0145 49.5794 37.911C49.2712 37.7962 49.1159 37.8104 49.1244 37.8085L48.6905 35.8561ZM51.6766 36.8764C52.1251 37.295 52.2073 37.2614 52.1563 37.258C52.13 37.2563 52.1498 37.267 52.2586 37.2236C52.3763 37.1767 52.5417 37.0897 52.7981 36.933L53.841 38.6396C53.3292 38.9523 52.7157 39.2998 52.0233 39.2536C51.3016 39.2055 50.7577 38.7546 50.3119 38.3385L51.6766 36.8764ZM52.8157 36.9225C53.1432 36.7314 53.3608 36.5756 53.4936 36.4575C53.5588 36.3996 53.59 36.3626 53.6011 36.3478C53.6131 36.3318 53.5893 36.3582 53.5691 36.4257C53.5464 36.5014 53.533 36.6146 53.5651 36.7432C53.5966 36.8691 53.6574 36.9526 53.6967 36.9946C53.7321 37.0323 53.7495 37.0365 53.7186 37.0195C53.6894 37.0035 53.6332 36.9774 53.5399 36.9463L54.1724 35.0489C54.4984 35.1576 54.8753 35.3275 55.1558 35.6267C55.4963 35.9898 55.638 36.4895 55.4847 37.0004C55.3606 37.4141 55.0734 37.7292 54.8223 37.9524C54.5527 38.1921 54.2113 38.4238 53.8234 38.6501L52.8157 36.9225ZM53.5399 36.9463C52.9802 36.7597 52.6521 36.2994 52.5409 35.836C52.4315 35.38 52.5156 34.8971 52.7494 34.4879L54.4859 35.4801C54.4812 35.4883 54.5057 35.4525 54.4857 35.3692C54.4639 35.2784 54.3744 35.1163 54.1724 35.0489L53.5399 36.9463ZM52.8039 34.4028C53.4513 33.4964 54.6009 33.4059 55.4796 33.7574L54.7368 35.6144C54.5953 35.5578 54.4945 35.5601 54.4473 35.5696C54.4054 35.5779 54.4158 35.587 54.4314 35.5652L52.8039 34.4028ZM55.5144 33.7721C55.679 33.8453 56.0797 33.9619 56.6627 34.0889C57.2181 34.21 57.8649 34.3251 58.4693 34.4114L58.1864 36.3913C57.5388 36.2988 56.844 36.1754 56.2368 36.043C55.6571 35.9167 55.074 35.765 54.7021 35.5997L55.5144 33.7721ZM46.1322 48.3683C48.098 53.03 52.1055 56.7331 57.6227 58.917L56.8866 60.7766C50.9562 58.4291 46.4972 54.3812 44.2894 49.1454L46.1322 48.3683ZM57.6123 58.9129L60.4146 59.9861L59.6993 61.8538L56.897 60.7806L57.6123 58.9129ZM60.51 61.8115L53.236 65.5081L52.3299 63.7251L59.6039 60.0285L60.51 61.8115ZM53.2339 65.5091C50.4042 66.9389 48.479 67.843 47.144 68.3349C46.4772 68.5805 45.9089 68.742 45.4199 68.8033C44.926 68.8652 44.4351 68.8347 43.9885 68.6114L44.8829 66.8226C44.8537 66.8079 44.9069 66.852 45.1713 66.8188C45.4406 66.7851 45.8449 66.682 46.4526 66.4582C47.6664 66.011 49.4975 65.1562 52.332 63.7241L53.2339 65.5091ZM43.9212 68.5745C43.9254 68.577 43.897 68.5603 43.8168 68.5321C43.7411 68.5055 43.6401 68.4759 43.5123 68.4451C43.2559 68.3834 42.9282 68.3257 42.5483 68.2764C41.7893 68.178 40.8785 68.1208 40.0236 68.1208V66.1208C40.9575 66.1208 41.9545 66.1827 42.8054 66.293C43.2304 66.3481 43.633 66.4171 43.9804 66.5007C44.304 66.5786 44.6654 66.6886 44.9502 66.8595L43.9212 68.5745ZM40.0236 68.1208C39.2304 68.1208 38.5709 68.1178 38.0267 68.0682C37.4712 68.0175 36.9613 67.9131 36.4827 67.6682C35.9993 67.4209 35.6259 67.0705 35.2792 66.6518C34.9435 66.2465 34.5935 65.7271 34.1832 65.1117L35.8473 64.0023C36.2718 64.6389 36.5627 65.0661 36.8196 65.3762C37.0653 65.6729 37.236 65.807 37.3936 65.8877C37.5559 65.9707 37.7839 66.0377 38.2084 66.0764C38.6443 66.1162 39.207 66.1208 40.0236 66.1208V68.1208ZM34.1973 65.1321C31.5805 61.4105 26.5411 56.4332 22.9565 54.0627L24.0597 52.3945C27.8683 54.9131 33.084 60.0717 35.8333 63.9818L34.1973 65.1321ZM22.9499 54.0583L19.6706 51.8523L20.787 50.1928L24.0662 52.3989L22.9499 54.0583ZM19.2537 50.8009L19.8499 48.1775L21.8002 48.6208L21.2039 51.2442L19.2537 50.8009ZM19.8483 48.1848C20.0981 47.0468 20.3186 46.044 21.0582 45.3514C21.4314 45.0019 21.8793 44.7787 22.3696 44.6003C22.8534 44.4243 23.4503 44.2675 24.1599 44.0901L24.6449 46.0304C23.9236 46.2108 23.4249 46.3446 23.0534 46.4798C22.6886 46.6125 22.5216 46.721 22.4253 46.8112C22.2258 46.9981 22.0886 47.307 21.8018 48.6136L19.8483 48.1848ZM24.1678 44.0882C25.8252 43.6881 29.0928 42.5483 32.4278 41.2651C35.7546 39.985 39.0528 38.5991 40.7628 37.7296L41.6693 39.5124C39.8616 40.4316 36.4821 41.848 33.146 43.1317C29.8181 44.4122 26.4377 45.5977 24.6371 46.0324L24.1678 44.0882ZM40.7598 37.7312L43.0851 36.5387L43.9977 38.3184L41.6724 39.5108L40.7598 37.7312ZM44.5383 37.3498L44.896 41.8812L42.9022 42.0386L42.5445 37.5072L44.5383 37.3498ZM44.8967 41.8903C44.983 43.1274 45.1709 44.4881 45.4025 45.6822C45.6388 46.9005 45.9049 47.8623 46.1227 48.3465L44.2989 49.1673C43.9802 48.459 43.6798 47.3042 43.4391 46.063C43.1937 44.7978 42.9941 43.3561 42.9015 42.0295L44.8967 41.8903Z" fill="black" mask="url(#path-2-outside-1_10_422)"/>
<path d="M54.3611 39.2125L54.3611 39.2124L54.3645 39.2103C54.6356 39.0408 54.9534 38.8903 55.2499 38.7887C55.3986 38.7377 55.5506 38.696 55.6953 38.6717C55.8224 38.6503 55.974 38.637 56.1231 38.6607C56.2792 38.6773 56.4043 38.7515 56.4616 38.7868C56.5502 38.8414 56.6415 38.9121 56.7301 38.9873C56.909 39.139 57.1209 39.3471 57.348 39.5861C57.8046 40.0666 58.3558 40.7072 58.886 41.3616C59.4165 42.0163 59.9331 42.6933 60.3193 43.2484C60.5118 43.525 60.6772 43.7788 60.7965 43.9883C60.8559 44.0924 60.9089 44.1945 60.9485 44.2882C60.9809 44.3649 61.0322 44.4981 61.0322 44.6426C61.0322 44.9275 60.8357 45.1058 60.7576 45.1707C60.6522 45.2582 60.5237 45.331 60.3993 45.391C60.1454 45.5135 59.8154 45.6274 59.4713 45.7212L59.4713 45.7213L59.461 45.7239C59.1138 45.8107 58.7518 45.7414 58.4287 45.6203C58.099 45.4967 57.7584 45.3 57.4261 45.0646C56.7605 44.5934 56.0702 43.926 55.4838 43.2276C54.8998 42.5323 54.3925 41.7749 54.116 41.1137C53.9793 40.7867 53.8822 40.4439 53.8869 40.1245C53.8918 39.7883 54.0155 39.4324 54.3611 39.2125Z" fill="#D5F1E0" stroke="black"/>
<path d="M54.6307 44.4887L54.6307 44.4887L54.6328 44.492C54.9089 44.9215 55.1294 45.3136 55.268 45.6072C55.3349 45.7489 55.3937 45.8904 55.4253 46.0105C55.4382 46.0598 55.4631 46.1634 55.45 46.2793C55.4433 46.3391 55.4206 46.4576 55.3269 46.5683C55.2163 46.6991 55.0636 46.7529 54.9277 46.7529C54.7329 46.7529 54.5599 46.6684 54.4521 46.6074C54.3274 46.5368 54.1989 46.4434 54.0748 46.3421C53.8252 46.1383 53.5527 45.8686 53.3019 45.5864C53.0509 45.3041 52.8098 44.9959 52.628 44.7107C52.5372 44.5684 52.4556 44.4231 52.3951 44.2832C52.3386 44.1529 52.2812 43.9844 52.2812 43.8084C52.2812 43.6803 52.2885 43.5549 52.3091 43.4405C52.3281 43.3345 52.3666 43.1903 52.4617 43.063C52.5756 42.9104 52.7579 42.8031 52.9791 42.8086C53.1609 42.8131 53.3064 42.8933 53.3971 42.9547C53.5818 43.0799 53.7693 43.2886 53.9547 43.5253C54.1489 43.7733 54.3739 44.096 54.6307 44.4887Z" fill="#D5F1E0" stroke="black"/>
<path d="M63.5202 51.522C63.3087 51.522 63.109 51.4326 62.9665 51.3558C62.8076 51.2701 62.6393 51.1546 62.4722 51.0256C62.1367 50.7666 61.7658 50.4222 61.4225 50.0634C61.079 49.7045 60.7509 49.3186 60.505 48.9722C60.3824 48.7996 60.2735 48.6275 60.1931 48.4669C60.1208 48.3222 60.0391 48.1252 60.0391 47.9216C60.0391 47.6988 60.111 47.4889 60.2578 47.3193C60.398 47.1573 60.5792 47.0632 60.7517 47.0098C61.087 46.906 61.4882 46.9241 61.8658 46.9988C62.6272 47.1494 63.5377 47.5806 64.1313 48.244C64.6971 48.8764 65.0042 49.6198 64.9421 50.2719C64.9103 50.6061 64.7777 50.9297 64.5144 51.1692C64.25 51.4096 63.9018 51.522 63.5202 51.522Z" fill="#D5F1E0" stroke="black"/>
</svg>
