<svg width="89" height="84" viewBox="0 0 89 84" fill="none" xmlns="http://www.w3.org/2000/svg">
<path d="M75.2509 70.5215C75.6512 71.6658 75.5803 72.7942 75.1537 74.1274L75.1518 74.1331C74.7846 75.2347 74.117 76.1242 72.9101 76.8171C71.7294 77.495 70.0456 77.9774 67.6526 78.3284C62.8652 79.0305 55.0331 79.2319 42.1888 79.2319C34.1812 79.2319 30.1942 79.2322 28.0707 79.37C27.004 79.4392 26.4645 79.5409 26.1371 79.6678C25.8451 79.7809 25.7074 79.9166 25.4492 80.1871C25.1017 80.5645 24.595 80.8731 23.9492 81.14C23.297 81.4094 22.47 81.6494 21.4521 81.8709C19.4169 82.3139 16.5589 82.6957 12.6842 83.0755L12.6828 83.0757C11.0957 83.2268 10.0764 83.285 9.21783 83.1614C8.33531 83.0343 7.65105 82.7199 6.72475 82.2053L6.72472 82.2054L6.71771 82.2013C5.35382 81.4145 4.27866 80.3765 3.86693 79.259L3.86114 79.2433L3.85642 79.2272C3.77865 78.9628 3.69565 78.3975 3.60937 77.6575C3.52078 76.8977 3.42382 75.9054 3.32553 74.7512C3.12889 72.4424 2.92609 69.4761 2.774 66.409H2.77399L2.77381 66.4047C2.5211 60.2387 1.81308 48.9095 1.20614 41.1204L1.20601 41.1188C0.650371 33.6681 0.393457 29.4167 0.541226 26.7954C0.615431 25.4791 0.793004 24.5323 1.10833 23.7805C1.42889 23.0161 1.87743 22.4875 2.4309 21.9878C2.57654 21.8546 2.78902 21.7467 2.99669 21.6567C3.22077 21.5595 3.4992 21.4587 3.81857 21.3555C4.45833 21.1487 5.29398 20.922 6.25435 20.6874C8.17695 20.2179 10.6286 19.7099 13.0763 19.2597C15.5239 18.8095 17.9756 18.4156 19.8985 18.1752C20.8587 18.0552 21.6952 17.9724 22.3365 17.9409C22.6563 17.9252 22.9375 17.9216 23.1659 17.9344C23.367 17.9457 23.6121 17.972 23.7968 18.068L23.8032 18.0714C24.3091 18.3438 24.6022 18.8577 24.8114 19.5732C25.0214 20.2912 25.1766 21.318 25.3285 22.7608L25.3285 22.7608L25.3291 22.7672L25.635 26.088L27.1826 25.8615C34 24.716 39.3651 21.7867 44.2507 16.5023C45.7785 14.8492 46.8369 13.4665 47.6258 12.011C48.4134 10.558 48.944 9.0111 49.3926 7.01765C50.0568 3.9533 51.1694 2.04827 52.8916 1.39502L52.8916 1.39496L74.7786 70.6857M75.2509 70.5215C75.2508 70.5212 75.2507 70.5208 75.2506 70.5205L74.7786 70.6857M75.2509 70.5215C75.251 70.5217 75.2511 70.5219 75.2511 70.5221L74.7786 70.6857M75.2509 70.5215C75.1352 70.1872 75.068 69.9708 75.042 69.8119C75.0298 69.7372 75.03 69.6931 75.0327 69.6689C75.0349 69.6491 75.0385 69.6429 75.04 69.6404L75.0401 69.6402C75.0461 69.6299 75.0855 69.5722 75.2804 69.4745C75.4719 69.3783 75.749 69.2741 76.1557 69.1343L76.164 69.1314L76.164 69.1314C77.6289 68.5987 78.7128 67.8171 79.3767 66.7035C80.0379 65.5944 80.2418 64.2238 80.0838 62.5913L80.0836 62.5897C79.9817 61.5703 79.9649 60.9742 80.0169 60.6418C80.0268 60.5785 80.0378 60.5352 80.0468 60.5068M74.7786 70.6857C74.3232 69.3699 74.3738 69.2181 75.9931 68.6615C78.7764 67.6494 79.8898 65.777 79.5861 62.6394C79.3837 60.6152 79.4849 60.008 79.991 60.008C81.2561 60.008 84.1912 56.9716 84.7985 55.1499M80.0468 60.5068C80.0281 60.5076 80.0095 60.508 79.991 60.508C79.9875 60.508 79.9879 60.5078 79.991 60.5069C79.9911 60.5069 79.9913 60.5068 79.9915 60.5068C80.0015 60.504 80.0351 60.4946 80.062 60.4637C80.0643 60.4612 80.0653 60.4598 80.0654 60.4598C80.0656 60.46 80.0576 60.4726 80.0468 60.5068ZM80.0468 60.5068C80.5094 60.487 81.0159 60.2271 81.4708 59.9191C81.9684 59.5822 82.4984 59.122 82.9984 58.6122C83.9834 57.6078 84.9313 56.3294 85.2718 55.3111M85.2718 55.3111C85.2713 55.3124 85.2709 55.3137 85.2704 55.315L84.7985 55.1499M85.2718 55.3111C85.4707 54.7403 85.6002 53.8655 85.6702 52.9421C85.7414 52.0043 85.7544 50.97 85.7025 50.0608L85.7025 50.0605C85.6263 48.7393 85.5103 47.8109 85.2674 47.0684C85.0169 46.3027 84.6403 45.7597 84.0978 45.19L84.0894 45.1812L84.0893 45.1813L83.1777 44.2697L85.2026 42.2448C87.258 40.1895 88.3892 37.9412 88.4923 35.9072C88.597 33.8413 87.6334 32.0499 85.6359 31.0227L82.8242 44.6233L83.7358 45.5349C84.7479 46.5976 85.0515 47.4579 85.2033 50.0893C85.3045 51.8605 85.1527 54.1378 84.7985 55.1499M85.2718 55.3111C85.2721 55.31 85.2725 55.309 85.2728 55.308L84.7985 55.1499M57.076 7.17817L57.0782 7.18109C59.5718 10.3592 60.6615 14.0298 60.4134 19.0427M57.076 7.17817L60.9128 19.0683M57.076 7.17817C56.6564 6.63523 56.2266 6.14442 55.8815 5.79331C55.7872 5.69735 55.7014 5.61402 55.6256 5.54414C55.61 5.58862 55.5939 5.63773 55.5772 5.69159C55.4546 6.08857 55.3329 6.65505 55.2339 7.29799M57.076 7.17817L81.5761 48.6082M60.4134 19.0427C60.4134 19.043 60.4134 19.0433 60.4134 19.0436L60.9128 19.0683M60.4134 19.0427C60.4134 19.0426 60.4135 19.0425 60.4135 19.0424L60.9128 19.0683M60.4134 19.0427C60.3122 20.992 60.2122 22.1465 59.9107 23.2862C59.6089 24.427 59.099 25.5756 58.1383 27.4972M60.9128 19.0683C60.7104 22.9649 60.5079 23.8758 58.5849 27.7218M58.1383 27.4972C58.1383 27.497 58.1384 27.4969 58.1385 27.4967L58.5849 27.7218M58.1383 27.4972C57.3783 29.0044 56.8248 30.2176 56.5224 31.1661C56.371 31.641 56.2753 32.0712 56.255 32.4524C56.2346 32.8343 56.2881 33.1997 56.4694 33.5133C56.8489 34.1697 57.6181 34.3452 58.4588 34.3419C59.3281 34.3385 60.487 34.144 61.9308 33.8274M58.1383 27.4972C58.1381 27.4975 58.1379 27.4979 58.1377 27.4982L58.5849 27.7218M58.5849 27.7218L61.9308 33.8274M61.9308 33.8274L61.8237 33.3392L61.9296 33.8276C61.93 33.8275 61.9304 33.8275 61.9308 33.8274ZM81.5761 48.6082L81.5762 48.6082C82.1221 49.609 82.2647 50.5539 82.029 51.8738L82.028 51.8795C81.7882 53.3184 81.2692 54.3911 80.461 55.1936C79.6489 56 78.5044 56.5738 76.9439 56.9398C75.6824 57.2231 74.6556 57.5626 73.8886 57.9389C73.1438 58.3044 72.556 58.7468 72.3069 59.2858C72.1739 59.5736 72.1396 59.8864 72.2321 60.198C72.3216 60.4995 72.5165 60.756 72.764 60.9712C73.2494 61.3932 74.0296 61.7365 75.0523 62.0086C75.5058 62.1346 75.8408 62.2362 76.0921 62.3343C76.3472 62.4339 76.4738 62.5144 76.54 62.5775C76.6173 62.6511 76.6863 62.7543 76.6107 63.3338L76.6094 63.3435L76.6085 63.3532C76.5866 63.5943 76.5431 63.7632 76.4719 63.9031C76.4022 64.0401 76.29 64.18 76.0861 64.3375C75.6538 64.6712 74.8885 65.0277 73.487 65.5629L73.4752 65.5674L73.4753 65.5675C72.5427 65.9507 71.7873 66.3071 71.2127 66.6569C70.6474 67.001 70.2032 67.3703 69.9595 67.8021C69.6935 68.2735 69.6947 68.7679 69.9162 69.2493C70.1219 69.696 70.5129 70.1257 71.0096 70.5571L71.01 70.5575C71.721 71.1737 72.0373 71.752 72.0869 72.1848C72.1306 72.566 71.9784 72.9143 71.5014 73.1826C70.7865 73.5671 69.3637 73.9399 67.3111 74.2656C65.2777 74.5882 62.6893 74.8557 59.6962 75.0576C53.7116 75.4612 46.1368 75.6003 38.2043 75.3982C38.2041 75.3982 38.2039 75.3982 38.2038 75.3982L25.6814 75.061L25.8658 74.3763C26.011 73.9587 26.1013 73.3578 26.1518 72.7514C26.2041 72.1238 26.2173 71.4445 26.191 70.8654C26.141 69.7662 26.0397 60.2156 26.0397 49.6845V49.6819L25.9407 30.871L30.2347 30.0861L30.2401 30.0851L30.2401 30.085C33.8136 29.3909 37.7313 27.9169 41.1193 26.127C44.4937 24.3443 47.406 22.2149 48.9153 20.1769M81.5761 48.6082L81.5707 48.5977M81.5761 48.6082L81.5707 48.5977M48.9153 20.1769C48.9157 20.1764 48.916 20.1759 48.9164 20.1755L48.5146 19.8781L48.9145 20.178C48.9148 20.1776 48.9151 20.1772 48.9153 20.1769ZM48.9153 20.1769C50.1568 18.5213 51.6525 15.8968 52.8726 13.4122C53.4842 12.1665 54.0311 10.947 54.4453 9.89135C54.8536 8.85095 55.1484 7.93177 55.2339 7.29799M55.2339 7.29799C55.2336 7.29956 55.2334 7.30113 55.2331 7.3027L54.7391 7.22671L55.2346 7.29276C55.2343 7.2945 55.2341 7.29624 55.2339 7.29799ZM81.5707 48.5977L80.8654 47.2286L78.0165 47.4999C78.0162 47.5 78.0158 47.5 78.0154 47.5L81.5707 48.5977ZM62.2654 28.9034C62.2566 28.8986 62.248 28.8943 62.2397 28.8905C62.2448 28.8799 62.2499 28.8691 62.2551 28.8582C62.3249 28.8597 62.4148 28.8607 62.5247 28.8609C62.6093 28.8612 62.7042 28.861 62.8089 28.8604C62.774 28.9327 62.7413 29.0007 62.7111 29.0638C62.6546 29.1817 62.6067 29.2823 62.5695 29.361C62.2681 29.3608 62.0822 29.356 62.0369 29.3462L62.0261 29.3412H62.5261C62.5261 29.1839 62.4545 29.0703 62.3982 29.0078C62.3456 28.9494 62.2917 28.9175 62.2654 28.9034ZM82.8242 43.9162L84.8491 41.8913C88.8469 37.8935 89.0493 33.339 85.4057 31.4666C82.673 30.0496 75.1329 29.0882 68.3518 29.24L82.8242 43.9162ZM82.1257 34.2737L82.2681 33.7948L82.1264 34.2739C82.1262 34.2738 82.1259 34.2738 82.1257 34.2737ZM17.3937 65.5174L17.3937 65.5175L17.3889 65.5138C16.5843 64.888 15.5359 64.5564 14.2041 64.5564C13.5841 64.5564 13.1293 64.5695 12.7876 64.6139C12.4422 64.6588 12.274 64.729 12.1837 64.7972C12.111 64.852 12.0434 64.939 11.9941 65.1516C11.9409 65.3803 11.9208 65.7031 11.9208 66.1818C11.9208 68.6763 13.1899 70.4703 14.5484 71.1275C15.2231 71.4539 15.8999 71.495 16.4781 71.2507C17.054 71.0073 17.6137 70.4459 17.9838 69.4051C18.4129 68.1935 18.5457 67.4676 18.4554 66.936C18.3726 66.4483 18.0849 66.0418 17.3937 65.5174Z" fill="#FEECD6" stroke="black"/>
</svg>
