<svg width="87" height="82" viewBox="0 0 87 82" fill="none" xmlns="http://www.w3.org/2000/svg">
<path d="M83.7985 53.437C83.1912 55.2588 80.2561 58.2951 78.991 58.2951C78.4849 58.2951 78.3837 58.9023 78.5861 60.9265C78.8898 64.0641 77.7764 65.9365 74.9931 66.9486M83.7985 53.437L73.2022 72.1068M83.7985 53.437C84.1527 52.4249 84.3045 50.1476 84.2033 48.3764C84.0515 45.745 83.7479 44.8847 82.7358 43.822L83.7985 53.437ZM74.9931 66.9486C73.3738 67.5052 73.3232 67.657 73.7786 68.9728C74.1329 69.9849 74.0823 70.997 73.6774 72.2621L73.2012 72.1097C73.2015 72.1087 73.2018 72.1077 73.2022 72.1068M74.9931 66.9486L74.8306 66.4757C74.8292 66.4762 74.8278 66.4767 74.8263 66.4772M74.9931 66.9486L74.8223 66.4787C74.8236 66.4782 74.825 66.4777 74.8263 66.4772M73.2022 72.1068C72.9113 72.9775 72.4024 73.6685 71.4122 74.237C70.3947 74.8211 68.8587 75.2812 66.5075 75.6261C61.8063 76.3156 54.052 76.519 41.1888 76.519H41.1362C33.1875 76.519 29.1666 76.519 27.006 76.6592C25.9282 76.7292 25.2564 76.8362 24.7758 77.0225C24.2627 77.2213 23.9955 77.5012 23.7254 77.7841L23.7226 77.7871L23.7156 77.7944L23.7157 77.7945C23.5067 78.0225 23.148 78.263 22.5673 78.5028C21.9907 78.741 21.2268 78.966 20.2395 79.1809C18.2643 79.6108 15.4548 79.9882 11.5872 80.3673C9.98666 80.5198 9.08306 80.5628 8.36036 80.4587C7.66239 80.3582 7.10737 80.1164 6.21397 79.6202C4.95712 78.8944 4.11354 78.0174 3.81154 77.2172C3.76273 77.0392 3.68935 76.5725 3.60264 75.8288C3.51569 75.0831 3.41972 74.1019 3.32192 72.9535C3.12641 70.6578 2.92442 67.7041 2.77288 64.6487C2.51947 58.4668 1.81068 47.1271 1.20318 39.3307C0.645549 31.8533 0.396435 27.6792 0.539641 25.1388C0.610926 23.8743 0.778102 23.0562 1.03051 22.4543C1.27739 21.8657 1.61905 21.4521 2.10232 21.016L2.10588 21.0127L2.1059 21.0127C2.10679 21.012 2.12665 20.9952 2.18031 20.965C2.23231 20.9357 2.30289 20.9009 2.39433 20.8613C2.57745 20.7819 2.82247 20.6923 3.12618 20.5941C3.73258 20.3981 4.54159 20.178 5.49158 19.946C7.38968 19.4825 9.8214 18.9784 12.2572 18.5303C14.693 18.0823 17.1247 17.6919 19.0225 17.4546C19.9726 17.3359 20.7807 17.2565 21.3856 17.2268C21.6889 17.2119 21.9312 17.21 22.11 17.22C22.2809 17.2295 22.3416 17.2481 22.3422 17.2463C22.4918 17.3323 22.6739 17.5334 22.8516 18.141C23.0337 18.7636 23.182 19.7094 23.3336 21.1494C23.3338 21.1504 23.3339 21.1515 23.334 21.1525L23.6876 24.9921L23.736 25.5173L24.2579 25.4409L26.3327 25.1373L26.3431 25.1358L26.3431 25.1357C33.389 23.9528 38.9533 20.9107 43.985 15.4682L43.9851 15.4682C45.5442 13.7813 46.6619 12.3301 47.505 10.7746C48.3492 9.21709 48.9065 7.57638 49.3686 5.52233L49.3695 5.51846C50.0203 2.51466 51.0315 1.08025 52.2422 0.618668C52.7357 0.442543 53.4893 0.455063 54.4028 0.707481C55.3044 0.956596 56.3033 1.42386 57.2483 2.07789C58.0551 2.64674 58.8732 3.6858 59.6321 5.07506C60.3865 6.45596 61.0604 8.14227 61.5967 9.95694C62.672 13.5955 63.1738 17.6794 62.708 20.771C62.5591 21.7134 62.3353 22.7456 62.0928 23.6532C61.8475 24.5717 61.5923 25.3273 61.3886 25.7347C61.1593 26.1933 60.9556 26.6134 60.8092 26.9188C60.736 27.0716 60.6771 27.1958 60.6364 27.2819L60.5896 27.3815L60.5773 27.4076L60.5741 27.4144L60.5733 27.4162L60.5731 27.4166L60.573 27.4168L60.573 27.4168L61.0261 27.6283L60.573 27.4168L60.5261 27.5174V27.6283C60.5261 27.7863 60.5981 27.9007 60.6551 27.964C60.7083 28.0232 60.7632 28.0558 60.7909 28.0707C60.8466 28.1007 60.8957 28.1134 60.9116 28.1174C60.9515 28.1275 60.9874 28.1318 61.0039 28.1336C61.0439 28.138 61.0905 28.1405 61.1354 28.1422C61.229 28.1459 61.3607 28.1477 61.5222 28.1481C61.8473 28.1489 62.3144 28.144 62.8878 28.1345C64.0352 28.1155 65.6183 28.0775 67.3647 28.0269C70.7295 27.9517 74.2839 28.1527 77.3326 28.548C80.4037 28.9461 82.8941 29.5331 84.1756 30.1976L84.1772 30.1984C85.8222 31.0438 86.5786 32.4654 86.4936 34.1437C86.4069 35.8545 85.438 37.8824 83.4955 39.8248L81.1171 42.2033L80.7635 42.5568L81.1171 42.9104L82.3779 44.1712C82.845 44.6624 83.1251 45.08 83.3169 45.6664C83.5168 46.2775 83.6285 47.095 83.7041 48.4052C83.7534 49.2672 83.7411 50.257 83.6731 51.1535C83.6042 52.0624 83.481 52.8304 83.3265 53.2718L83.3241 53.2788C83.0565 54.0818 82.2341 55.2309 81.2844 56.1991C80.8166 56.6761 80.3376 57.0888 79.9102 57.3781C79.4583 57.684 79.1461 57.7951 78.991 57.7951C78.752 57.7951 78.501 57.8735 78.3095 58.0923C78.1405 58.2855 78.0663 58.5352 78.0289 58.7745C77.9543 59.2516 77.9881 59.9707 78.0884 60.9747C78.2341 62.4797 78.0331 63.6141 77.5178 64.4786C77.0056 65.3376 76.1425 65.9979 74.8263 66.4772M73.2022 72.1068C73.5842 70.9116 73.6143 70.0168 73.3067 69.138L73.3061 69.1363C73.1943 68.8132 73.0971 68.5173 73.0551 68.2604C73.0114 67.9932 73.0152 67.7005 73.1756 67.4247C73.3277 67.1631 73.5761 66.9961 73.8319 66.8678C74.0902 66.7382 74.4253 66.6151 74.8263 66.4772M57.5849 26.0089C59.5079 22.1629 59.7104 21.252 59.9128 17.3554C60.1658 12.2443 59.0525 8.44889 56.4716 5.15955L56.865 4.85091C56.8653 4.85134 56.8657 4.85178 56.866 4.85222M57.5849 26.0089L56.866 4.85222M57.5849 26.0089C54.5486 32.0309 55.0547 32.8912 60.8237 31.6261C65.0239 30.7152 77.6752 31.0188 81.2682 32.0815C83.1406 32.6382 83.596 32.9924 83.6973 34.1058L57.5849 26.0089ZM56.866 4.85222C56.4257 4.28247 55.9705 3.7618 55.5947 3.37949C55.4077 3.18917 55.233 3.02564 55.0849 2.90604C55.0117 2.84695 54.935 2.79034 54.8595 2.74588C54.8085 2.71584 54.6697 2.63534 54.498 2.63534C54.2845 2.63534 54.134 2.74677 54.0546 2.82305C53.9718 2.90262 53.9103 2.99644 53.8647 3.07791C53.7723 3.24327 53.6921 3.45599 53.6218 3.68362C53.479 4.14597 53.348 4.76691 53.2448 5.43776L53.2432 5.44769L53.2433 5.44771C53.176 5.95238 52.9211 6.77688 52.5144 7.81318C52.1126 8.83708 51.5778 10.0308 50.9749 11.2585C49.7662 13.72 48.302 16.2818 47.1145 17.8651L47.1126 17.8676C45.7371 19.7257 42.9822 21.7707 39.6522 23.53C36.3359 25.2819 32.5123 26.7175 29.0523 27.3899C29.0514 27.3901 29.0504 27.3903 29.0494 27.3905L24.3486 28.2498L23.9363 28.3251L23.9385 28.7442L24.0397 47.9716C24.0397 47.972 24.0397 47.9724 24.0397 47.9728C24.0397 58.493 24.1408 68.0705 24.192 69.1979C24.2163 69.7321 24.2042 70.3685 24.1553 70.9555C24.1054 71.5539 24.0207 72.0567 23.917 72.347L23.9103 72.3658L23.9051 72.3852L23.5508 73.7009L23.3859 74.3136L24.0202 74.3307L37.1776 74.6849L37.1783 74.685C45.1357 74.8877 52.7422 74.7485 58.7635 74.3424C61.7735 74.1394 64.3943 73.8693 66.4678 73.5403C68.5189 73.2149 70.0994 72.823 70.9798 72.3479L70.9866 72.3442L70.9866 72.3441C71.772 71.9043 72.1758 71.1906 72.0804 70.3581C71.9908 69.5765 71.4722 68.7886 70.6653 68.0892C70.2006 67.6856 69.94 67.3689 69.8246 67.1182C69.7252 66.9022 69.7359 66.7482 69.8304 66.5807C69.9473 66.3736 70.2147 66.1135 70.7327 65.7982C71.2402 65.4892 71.9379 65.1568 72.8497 64.7819C74.228 64.2555 75.1309 63.8534 75.6973 63.4161C75.993 63.1877 76.213 62.9386 76.3631 62.6439C76.5101 62.355 76.5744 62.0528 76.6035 61.7406C76.6787 61.1595 76.6943 60.5835 76.2301 60.1409C76.0243 59.9446 75.7556 59.8069 75.4557 59.6898C75.1523 59.5714 74.7734 59.4582 74.3173 59.3315L74.3119 59.33C73.3371 59.0709 72.7329 58.7756 72.4201 58.5036C72.2683 58.3717 72.2106 58.2673 72.1908 58.2005C72.1739 58.1438 72.1737 58.081 72.2146 57.9925C72.3134 57.7787 72.6333 57.4652 73.3291 57.1238C74.0024 56.7935 74.9484 56.4753 76.1654 56.2021L76.17 56.201C77.8471 55.8079 79.1816 55.1674 80.1656 54.1903C81.1533 53.2095 81.7475 51.9299 82.014 50.3338C82.2832 48.8234 82.1228 47.6448 81.457 46.4217L80.5994 44.7569L80.4444 44.4561L80.1075 44.4881L76.9193 44.7918L76.917 44.792C75.6497 44.9187 74.865 44.9502 74.344 44.8879C73.8557 44.8296 73.657 44.6966 73.5049 44.514C73.2959 44.2632 73.2447 44.0864 73.2474 43.9651C73.25 43.8486 73.3045 43.6837 73.5269 43.4587C73.9963 42.984 75.0092 42.446 76.7316 41.8126C77.6053 41.5042 78.5529 41.1199 79.3665 40.7547C80.1632 40.3972 80.8679 40.0419 81.241 39.7854C82.1646 39.195 82.9493 38.236 83.4773 37.2133C84.0033 36.1947 84.3092 35.0452 84.1946 34.0541C84.1368 33.4272 83.9655 32.9118 83.465 32.4991C83.0154 32.1284 82.3372 31.8777 81.4107 31.6023L81.41 31.6021C80.4616 31.3216 78.9555 31.1001 77.195 30.9361C75.4241 30.7711 73.3626 30.6615 71.2851 30.6139C67.1494 30.519 62.8823 30.668 60.7177 31.1375L60.7166 31.1377C59.2758 31.4537 58.2082 31.6261 57.4549 31.629C56.6731 31.632 56.4238 31.4532 56.3352 31.2999C56.2824 31.2087 56.2395 31.0555 56.2535 30.7929C56.2676 30.5297 56.3372 30.1897 56.4752 29.7569C56.7515 28.89 57.2733 27.7376 58.0314 26.234L58.0322 26.2325C58.9941 24.3087 59.5468 23.079 59.8774 21.829C60.2085 20.5777 60.311 19.3284 60.4121 17.3814L60.4122 17.3801C60.67 12.1719 59.5333 8.25233 56.866 4.85222ZM17.9263 68.0264L17.9261 68.027C17.4865 69.2633 16.7621 70.0808 15.8673 70.4589C14.9748 70.8361 13.9943 70.7412 13.1129 70.3148C11.3592 69.4665 9.92084 67.288 9.92084 64.4689C9.92084 63.9861 9.93869 63.5625 10.02 63.2124C10.105 62.8462 10.2684 62.522 10.5816 62.2859C10.8771 62.063 11.2498 61.9625 11.6587 61.9093C12.0713 61.8557 12.5843 61.8435 13.2041 61.8435C14.7051 61.8435 15.9837 62.2198 17.0005 63.0097C17.7755 63.5981 18.2966 64.2033 18.4413 65.0557C18.5788 65.8652 18.3574 66.8091 17.9263 68.0264Z" fill="#FEECD6" stroke="black"/>
</svg>
