<svg width="121" height="89" viewBox="0 0 121 89" fill="none" xmlns="http://www.w3.org/2000/svg">
<mask id="path-1-outside-1_10_440" maskUnits="userSpaceOnUse" x="-1.01612" y="-1.26276" width="123.438" height="90.2357" fill="black">
<rect fill="white" x="-1.01612" y="-1.26276" width="123.438" height="90.2357"/>
<path d="M14.7154 2.03091C14.1834 3.33439 14.1567 25.2158 14.6533 41.8255C14.8411 48.2396 14.9443 57.6215 14.8624 62.6661L14.7143 71.791L13.3605 72.0273C12.5924 72.1464 9.74308 72.361 7.00383 72.5374C1.89143 72.8122 0.535838 73.1598 1.54616 73.8541C1.90686 74.11 4.35117 74.1221 8.36762 73.9327L14.6483 73.6089L14.8163 74.4972C14.918 74.9783 15.0194 77.7217 15.046 80.5771C15.0987 86.325 15.476 87.8046 16.8992 87.7901C18.2494 87.7763 18.4517 86.5503 18.3411 79.8759L18.2209 73.7949L19.4652 73.5596C20.1609 73.4042 28.4493 73.0227 37.9406 72.7031C57.3612 72.0595 81.8037 72.2175 100.251 73.1044C114.505 73.8117 118.081 73.7751 118.897 72.9879C119.454 72.3889 119.455 72.3147 118.845 71.6533C118.235 71.0662 118.176 70.2138 118.21 63.5749C118.308 46.2916 117.759 17.1841 117.296 11.9967C116.981 8.95885 116.656 8.70256 113.08 8.77622C107.97 8.90264 102.923 9.6218 102.256 10.2591C101.736 10.8207 101.631 12.7874 101.448 28.5882C101.289 38.3436 101.216 51.881 101.251 58.7046L101.305 71.091L100.433 70.8774C99.961 70.7338 98.1382 70.6412 96.3866 70.6591L93.1754 70.692L93.5509 43.0586C93.8327 18.9493 93.8181 15.3521 93.3491 15.0231C92.7713 14.6581 89.0456 14.9188 85.8606 15.5818C84.8723 15.7773 82.751 16.0957 81.143 16.2605C79.4249 16.4635 78.1423 16.8104 77.955 17.109C77.8042 17.4072 77.5344 29.5373 77.4073 44.1137L77.16 70.5961L73.04 70.4157C70.78 70.2905 67.7895 70.2098 66.3664 70.2244L63.812 70.2505L64.9217 69.312C66.2158 68.2603 66.948 68.1045 66.9348 68.9205C66.9221 69.6995 67.902 70.0232 68.5679 69.4601C69.2337 68.897 69.3681 65.1128 68.9095 57.4035C68.774 54.5121 68.594 47.6158 68.5365 42.1647L68.443 32.1893L66.9827 32.2413C65.157 32.3342 54.0766 33.8938 52.0624 34.3595C51.2566 34.5531 50.4854 34.8577 50.3 35.0451C49.892 35.4572 49.907 34.5299 49.732 49.8114C49.623 56.5252 49.5026 63.9437 49.4659 66.2064L49.3979 70.3979L45.8218 70.4344L42.2091 70.4714L42.184 58.5297C42.152 49.2584 42.0147 46.4783 41.6558 46.1111C41.2616 45.6701 40.4217 45.7158 36.6188 46.2368C34.132 46.596 31.4256 46.9945 30.6216 47.0769C29.817 47.1964 28.9382 47.3908 28.6797 47.5789C28.3112 47.8052 28.1219 50.4774 27.8662 59.492C27.6532 65.8731 27.4582 71.1414 27.4211 71.1789C27.3469 71.2538 25.2657 71.3493 22.7466 71.4492L18.1828 71.6442L18.0447 64.4137C17.9632 60.4463 17.7977 52.6598 17.7043 47.1719C17.4953 37.5686 16.259 5.83506 15.9835 2.57424C15.7935 0.796028 15.2862 0.578695 14.7154 2.03091ZM111.096 11.8747C109.179 13.044 104.463 15.8737 104.206 15.9876C104.022 16.0636 103.927 15.2116 103.945 14.0617C103.976 12.2071 104.052 11.9838 104.821 11.7905C105.993 11.5189 107.894 11.314 110.194 11.2534L112.202 11.1587L111.096 11.8747ZM114.7 12.32C114.802 12.8011 114.893 13.9498 114.878 14.8771L114.851 16.5463L112.718 17.5695C111.541 18.1378 109.149 19.4232 107.38 20.4797C105.613 21.4991 103.993 22.3687 103.811 22.3705C103.592 22.3728 103.461 21.4099 103.481 20.2229L103.515 18.1086L106.572 16.3343C108.23 15.316 110.589 13.8455 111.806 13.0542C113.024 12.2258 114.129 11.547 114.239 11.5459C114.385 11.5073 114.562 11.8763 114.7 12.32ZM91.5431 20.6416C91.4717 22.7934 91.1301 34.8501 90.8166 47.4257L90.1891 70.3516L84.5695 70.4091L78.9498 70.4666L78.987 63.6793C79.0107 59.9704 79.1644 48.2495 79.3372 37.6038L79.6137 18.3159L84.186 17.6016C86.7099 17.2049 89.0143 16.8476 89.3074 16.7704C89.6005 16.6932 90.2574 16.6865 90.7682 16.6813L91.6793 16.7462L91.5431 20.6416ZM115.158 20.1035L115.12 22.4403L109.711 25.2771C106.73 26.8282 104.191 28.1522 104.007 28.2282C103.86 28.3039 103.729 27.3781 103.749 26.154C103.785 23.9655 103.785 23.9655 105.182 23.3208C105.954 22.942 108.421 21.5817 110.632 20.2239C112.842 18.9033 114.757 17.8082 114.94 17.8063C115.086 17.8049 115.178 18.8423 115.158 20.1035ZM115.378 26.7397L115.387 28.4456L111.448 30.637C109.24 31.8092 106.771 33.2808 105.886 33.8833C105 34.4857 104.153 34.9765 103.934 34.9787C103.752 34.9806 103.623 33.9064 103.644 32.6082L103.682 30.2713L107.104 28.4933C108.945 27.5102 111.485 26.0749 112.702 25.2836C115.209 23.6633 115.39 23.7727 115.378 26.7397ZM115.307 33.379L115.262 36.161L112.026 37.7517C110.26 38.6227 107.682 40.0955 106.281 41.037C104.879 41.9785 103.662 42.7697 103.625 42.7701C103.553 42.7709 103.5 41.5104 103.525 39.9896L103.57 37.2077L105.523 36.0009C106.556 35.3228 109.1 33.665 111.129 32.272C113.527 30.6899 114.925 29.9338 115.067 30.192C115.209 30.4131 115.332 31.8582 115.307 33.379ZM66.0205 35.3293C66.0127 35.8116 64.7928 36.7883 62.0642 38.5593C59.8524 39.9541 56.7151 42.1743 55.052 43.4893C53.3894 44.7673 51.9506 45.7462 51.8429 45.6361C51.5558 45.3423 51.6308 42.968 51.9037 41.8897C52.0575 41.406 52.7617 40.7312 53.6818 40.2397C54.4912 39.8235 56.481 38.6163 58.067 37.5617C61.2754 35.452 63.0755 34.6919 64.8642 34.6365C65.7765 34.6272 66.0295 34.773 66.0205 35.3293ZM59.2612 35.9177C58.855 36.2185 57.0871 37.2379 55.357 38.1828L52.154 39.9586L52.0339 38.3651C51.9383 37.5131 51.988 36.6967 52.0999 36.5472C52.3601 36.2478 56.4209 35.5759 58.5386 35.48C59.8529 35.4295 59.9253 35.4658 59.2612 35.9177ZM66.243 41.8543L66.2494 43.7086L64.2979 44.8041C61.4987 46.4274 57.589 49.0264 54.56 51.3196C53.0829 52.4102 51.8278 53.3132 51.7913 53.3135C51.5723 53.3158 51.9193 47.6751 52.1418 47.4503C52.2537 47.3008 55.3928 44.9693 59.0853 42.2613L65.8055 37.3342L66.0393 38.667C66.1732 39.4073 66.2598 40.8157 66.243 41.8543ZM115.5 41.7586L115.5 43.9838L113.771 44.8545C111.418 45.9911 105.19 49.7635 104.376 50.4765C104.006 50.7769 103.708 51.1879 103.705 51.3734C103.692 52.1524 105.382 51.4304 109.547 48.8289C112.017 47.2831 114.376 45.8125 114.78 45.623C115.443 45.2453 115.477 45.3933 115.426 48.5462L115.372 51.8475L110.884 54.1186C108.383 55.368 105.659 56.8422 104.811 57.4072L103.226 58.3877L103.342 51.2288L103.459 44.0328L104.744 43.5375C105.992 43.0797 106.803 42.5522 112.303 38.6389L115.071 36.6821L115.304 38.089C115.437 38.8665 115.52 40.4975 115.5 41.7586ZM66.1681 48.7161L66.1079 52.4254L63.496 53.7502C62.0608 54.5066 58.8535 56.542 56.3079 58.2741C53.7617 60.0432 51.6224 61.4743 51.5129 61.4755C51.4399 61.4762 51.4269 60.0299 51.4923 58.2491L51.6547 54.9838L55.1605 52.5373C57.0804 51.1455 60.1811 48.9257 61.9915 47.535C63.8377 46.181 65.5344 45.051 65.7898 45.0484C66.1188 45.008 66.2127 45.9713 66.1681 48.7161ZM39.8139 58.4427C39.7595 64.0434 39.7141 69.0876 39.7051 69.644L39.7247 70.6822L34.2857 70.8491L28.8467 71.016L29.1732 66.6364C29.3218 64.2243 29.6208 59.2887 29.8251 55.6892L30.1506 49.1215L32.382 48.7649C33.6257 48.5668 35.8182 48.3589 37.2784 48.3069L39.9064 48.2429L39.8139 58.4427ZM66.3618 61.509L66.4302 66.2925L63.5519 68.2876L60.6372 70.283L55.9298 70.3311L51.2225 70.3792L51.279 66.8925L51.3356 63.4058L53.8411 61.8967C55.2045 61.0668 58.4878 58.8451 61.1082 57.0011L65.9062 53.6142L66.0999 55.1699C66.2326 55.9845 66.3322 58.8391 66.3618 61.509ZM115.307 55.8906L115.26 58.7838L111.287 60.7901C109.117 61.8507 106.464 63.4354 105.393 64.2623C104.321 65.0892 103.362 65.7665 103.289 65.7673C103.179 65.7684 103.126 64.5451 103.15 63.0614L103.194 60.3536L108.836 56.6985C111.896 54.7016 114.659 53.0786 114.915 53.0389C115.207 53.036 115.34 53.8505 115.307 55.8906ZM115.555 63.0458L115.508 65.9761L113.777 66.9952C112.782 67.5616 111.049 68.692 109.905 69.4825C107.95 70.8005 107.62 70.9151 105.175 70.9401C102.657 70.9659 102.585 70.9295 102.817 70.1113C102.934 69.665 103.058 68.7737 103.068 68.1431C103.083 67.1787 103.307 66.8797 104.189 66.4998C104.777 66.2342 107.393 64.6869 109.973 63.0658C112.59 61.4443 114.91 60.1225 115.166 60.0828C115.458 60.0799 115.59 60.8944 115.555 63.0458ZM115.811 69.793L115.786 71.3138L114.44 71.0679C113.676 70.9645 112.583 70.8644 111.962 70.8707C110.941 70.8812 110.978 70.8066 113.044 69.4133C114.262 68.5849 115.366 67.9803 115.547 68.0897C115.691 68.1995 115.824 68.9769 115.811 69.793Z"/>
</mask>
<path d="M14.7154 2.03091C14.1834 3.33439 14.1567 25.2158 14.6533 41.8255C14.8411 48.2396 14.9443 57.6215 14.8624 62.6661L14.7143 71.791L13.3605 72.0273C12.5924 72.1464 9.74308 72.361 7.00383 72.5374C1.89143 72.8122 0.535838 73.1598 1.54616 73.8541C1.90686 74.11 4.35117 74.1221 8.36762 73.9327L14.6483 73.6089L14.8163 74.4972C14.918 74.9783 15.0194 77.7217 15.046 80.5771C15.0987 86.325 15.476 87.8046 16.8992 87.7901C18.2494 87.7763 18.4517 86.5503 18.3411 79.8759L18.2209 73.7949L19.4652 73.5596C20.1609 73.4042 28.4493 73.0227 37.9406 72.7031C57.3612 72.0595 81.8037 72.2175 100.251 73.1044C114.505 73.8117 118.081 73.7751 118.897 72.9879C119.454 72.3889 119.455 72.3147 118.845 71.6533C118.235 71.0662 118.176 70.2138 118.21 63.5749C118.308 46.2916 117.759 17.1841 117.296 11.9967C116.981 8.95885 116.656 8.70256 113.08 8.77622C107.97 8.90264 102.923 9.6218 102.256 10.2591C101.736 10.8207 101.631 12.7874 101.448 28.5882C101.289 38.3436 101.216 51.881 101.251 58.7046L101.305 71.091L100.433 70.8774C99.961 70.7338 98.1382 70.6412 96.3866 70.6591L93.1754 70.692L93.5509 43.0586C93.8327 18.9493 93.8181 15.3521 93.3491 15.0231C92.7713 14.6581 89.0456 14.9188 85.8606 15.5818C84.8723 15.7773 82.751 16.0957 81.143 16.2605C79.4249 16.4635 78.1423 16.8104 77.955 17.109C77.8042 17.4072 77.5344 29.5373 77.4073 44.1137L77.16 70.5961L73.04 70.4157C70.78 70.2905 67.7895 70.2098 66.3664 70.2244L63.812 70.2505L64.9217 69.312C66.2158 68.2603 66.948 68.1045 66.9348 68.9205C66.9221 69.6995 67.902 70.0232 68.5679 69.4601C69.2337 68.897 69.3681 65.1128 68.9095 57.4035C68.774 54.5121 68.594 47.6158 68.5365 42.1647L68.443 32.1893L66.9827 32.2413C65.157 32.3342 54.0766 33.8938 52.0624 34.3595C51.2566 34.5531 50.4854 34.8577 50.3 35.0451C49.892 35.4572 49.907 34.5299 49.732 49.8114C49.623 56.5252 49.5026 63.9437 49.4659 66.2064L49.3979 70.3979L45.8218 70.4344L42.2091 70.4714L42.184 58.5297C42.152 49.2584 42.0147 46.4783 41.6558 46.1111C41.2616 45.6701 40.4217 45.7158 36.6188 46.2368C34.132 46.596 31.4256 46.9945 30.6216 47.0769C29.817 47.1964 28.9382 47.3908 28.6797 47.5789C28.3112 47.8052 28.1219 50.4774 27.8662 59.492C27.6532 65.8731 27.4582 71.1414 27.4211 71.1789C27.3469 71.2538 25.2657 71.3493 22.7466 71.4492L18.1828 71.6442L18.0447 64.4137C17.9632 60.4463 17.7977 52.6598 17.7043 47.1719C17.4953 37.5686 16.259 5.83506 15.9835 2.57424C15.7935 0.796028 15.2862 0.578695 14.7154 2.03091ZM111.096 11.8747C109.179 13.044 104.463 15.8737 104.206 15.9876C104.022 16.0636 103.927 15.2116 103.945 14.0617C103.976 12.2071 104.052 11.9838 104.821 11.7905C105.993 11.5189 107.894 11.314 110.194 11.2534L112.202 11.1587L111.096 11.8747ZM114.7 12.32C114.802 12.8011 114.893 13.9498 114.878 14.8771L114.851 16.5463L112.718 17.5695C111.541 18.1378 109.149 19.4232 107.38 20.4797C105.613 21.4991 103.993 22.3687 103.811 22.3705C103.592 22.3728 103.461 21.4099 103.481 20.2229L103.515 18.1086L106.572 16.3343C108.23 15.316 110.589 13.8455 111.806 13.0542C113.024 12.2258 114.129 11.547 114.239 11.5459C114.385 11.5073 114.562 11.8763 114.7 12.32ZM91.5431 20.6416C91.4717 22.7934 91.1301 34.8501 90.8166 47.4257L90.1891 70.3516L84.5695 70.4091L78.9498 70.4666L78.987 63.6793C79.0107 59.9704 79.1644 48.2495 79.3372 37.6038L79.6137 18.3159L84.186 17.6016C86.7099 17.2049 89.0143 16.8476 89.3074 16.7704C89.6005 16.6932 90.2574 16.6865 90.7682 16.6813L91.6793 16.7462L91.5431 20.6416ZM115.158 20.1035L115.12 22.4403L109.711 25.2771C106.73 26.8282 104.191 28.1522 104.007 28.2282C103.86 28.3039 103.729 27.3781 103.749 26.154C103.785 23.9655 103.785 23.9655 105.182 23.3208C105.954 22.942 108.421 21.5817 110.632 20.2239C112.842 18.9033 114.757 17.8082 114.94 17.8063C115.086 17.8049 115.178 18.8423 115.158 20.1035ZM115.378 26.7397L115.387 28.4456L111.448 30.637C109.24 31.8092 106.771 33.2808 105.886 33.8833C105 34.4857 104.153 34.9765 103.934 34.9787C103.752 34.9806 103.623 33.9064 103.644 32.6082L103.682 30.2713L107.104 28.4933C108.945 27.5102 111.485 26.0749 112.702 25.2836C115.209 23.6633 115.39 23.7727 115.378 26.7397ZM115.307 33.379L115.262 36.161L112.026 37.7517C110.26 38.6227 107.682 40.0955 106.281 41.037C104.879 41.9785 103.662 42.7697 103.625 42.7701C103.553 42.7709 103.5 41.5104 103.525 39.9896L103.57 37.2077L105.523 36.0009C106.556 35.3228 109.1 33.665 111.129 32.272C113.527 30.6899 114.925 29.9338 115.067 30.192C115.209 30.4131 115.332 31.8582 115.307 33.379ZM66.0205 35.3293C66.0127 35.8116 64.7928 36.7883 62.0642 38.5593C59.8524 39.9541 56.7151 42.1743 55.052 43.4893C53.3894 44.7673 51.9506 45.7462 51.8429 45.6361C51.5558 45.3423 51.6308 42.968 51.9037 41.8897C52.0575 41.406 52.7617 40.7312 53.6818 40.2397C54.4912 39.8235 56.481 38.6163 58.067 37.5617C61.2754 35.452 63.0755 34.6919 64.8642 34.6365C65.7765 34.6272 66.0295 34.773 66.0205 35.3293ZM59.2612 35.9177C58.855 36.2185 57.0871 37.2379 55.357 38.1828L52.154 39.9586L52.0339 38.3651C51.9383 37.5131 51.988 36.6967 52.0999 36.5472C52.3601 36.2478 56.4209 35.5759 58.5386 35.48C59.8529 35.4295 59.9253 35.4658 59.2612 35.9177ZM66.243 41.8543L66.2494 43.7086L64.2979 44.8041C61.4987 46.4274 57.589 49.0264 54.56 51.3196C53.0829 52.4102 51.8278 53.3132 51.7913 53.3135C51.5723 53.3158 51.9193 47.6751 52.1418 47.4503C52.2537 47.3008 55.3928 44.9693 59.0853 42.2613L65.8055 37.3342L66.0393 38.667C66.1732 39.4073 66.2598 40.8157 66.243 41.8543ZM115.5 41.7586L115.5 43.9838L113.771 44.8545C111.418 45.9911 105.19 49.7635 104.376 50.4765C104.006 50.7769 103.708 51.1879 103.705 51.3734C103.692 52.1524 105.382 51.4304 109.547 48.8289C112.017 47.2831 114.376 45.8125 114.78 45.623C115.443 45.2453 115.477 45.3933 115.426 48.5462L115.372 51.8475L110.884 54.1186C108.383 55.368 105.659 56.8422 104.811 57.4072L103.226 58.3877L103.342 51.2288L103.459 44.0328L104.744 43.5375C105.992 43.0797 106.803 42.5522 112.303 38.6389L115.071 36.6821L115.304 38.089C115.437 38.8665 115.52 40.4975 115.5 41.7586ZM66.1681 48.7161L66.1079 52.4254L63.496 53.7502C62.0608 54.5066 58.8535 56.542 56.3079 58.2741C53.7617 60.0432 51.6224 61.4743 51.5129 61.4755C51.4399 61.4762 51.4269 60.0299 51.4923 58.2491L51.6547 54.9838L55.1605 52.5373C57.0804 51.1455 60.1811 48.9257 61.9915 47.535C63.8377 46.181 65.5344 45.051 65.7898 45.0484C66.1188 45.008 66.2127 45.9713 66.1681 48.7161ZM39.8139 58.4427C39.7595 64.0434 39.7141 69.0876 39.7051 69.644L39.7247 70.6822L34.2857 70.8491L28.8467 71.016L29.1732 66.6364C29.3218 64.2243 29.6208 59.2887 29.8251 55.6892L30.1506 49.1215L32.382 48.7649C33.6257 48.5668 35.8182 48.3589 37.2784 48.3069L39.9064 48.2429L39.8139 58.4427ZM66.3618 61.509L66.4302 66.2925L63.5519 68.2876L60.6372 70.283L55.9298 70.3311L51.2225 70.3792L51.279 66.8925L51.3356 63.4058L53.8411 61.8967C55.2045 61.0668 58.4878 58.8451 61.1082 57.0011L65.9062 53.6142L66.0999 55.1699C66.2326 55.9845 66.3322 58.8391 66.3618 61.509ZM115.307 55.8906L115.26 58.7838L111.287 60.7901C109.117 61.8507 106.464 63.4354 105.393 64.2623C104.321 65.0892 103.362 65.7665 103.289 65.7673C103.179 65.7684 103.126 64.5451 103.15 63.0614L103.194 60.3536L108.836 56.6985C111.896 54.7016 114.659 53.0786 114.915 53.0389C115.207 53.036 115.34 53.8505 115.307 55.8906ZM115.555 63.0458L115.508 65.9761L113.777 66.9952C112.782 67.5616 111.049 68.692 109.905 69.4825C107.95 70.8005 107.62 70.9151 105.175 70.9401C102.657 70.9659 102.585 70.9295 102.817 70.1113C102.934 69.665 103.058 68.7737 103.068 68.1431C103.083 67.1787 103.307 66.8797 104.189 66.4998C104.777 66.2342 107.393 64.6869 109.973 63.0658C112.59 61.4443 114.91 60.1225 115.166 60.0828C115.458 60.0799 115.59 60.8944 115.555 63.0458ZM115.811 69.793L115.786 71.3138L114.44 71.0679C113.676 70.9645 112.583 70.8644 111.962 70.8707C110.941 70.8812 110.978 70.8066 113.044 69.4133C114.262 68.5849 115.366 67.9803 115.547 68.0897C115.691 68.1995 115.824 68.9769 115.811 69.793Z" fill="#B6CCAB"/>
<path d="M14.7154 2.03091C14.1834 3.33439 14.1567 25.2158 14.6533 41.8255C14.8411 48.2396 14.9443 57.6215 14.8624 62.6661L14.7143 71.791L13.3605 72.0273C12.5924 72.1464 9.74308 72.361 7.00383 72.5374C1.89143 72.8122 0.535838 73.1598 1.54616 73.8541C1.90686 74.11 4.35117 74.1221 8.36762 73.9327L14.6483 73.6089L14.8163 74.4972C14.918 74.9783 15.0194 77.7217 15.046 80.5771C15.0987 86.325 15.476 87.8046 16.8992 87.7901C18.2494 87.7763 18.4517 86.5503 18.3411 79.8759L18.2209 73.7949L19.4652 73.5596C20.1609 73.4042 28.4493 73.0227 37.9406 72.7031C57.3612 72.0595 81.8037 72.2175 100.251 73.1044C114.505 73.8117 118.081 73.7751 118.897 72.9879C119.454 72.3889 119.455 72.3147 118.845 71.6533C118.235 71.0662 118.176 70.2138 118.21 63.5749C118.308 46.2916 117.759 17.1841 117.296 11.9967C116.981 8.95885 116.656 8.70256 113.08 8.77622C107.97 8.90264 102.923 9.6218 102.256 10.2591C101.736 10.8207 101.631 12.7874 101.448 28.5882C101.289 38.3436 101.216 51.881 101.251 58.7046L101.305 71.091L100.433 70.8774C99.961 70.7338 98.1382 70.6412 96.3866 70.6591L93.1754 70.692L93.5509 43.0586C93.8327 18.9493 93.8181 15.3521 93.3491 15.0231C92.7713 14.6581 89.0456 14.9188 85.8606 15.5818C84.8723 15.7773 82.751 16.0957 81.143 16.2605C79.4249 16.4635 78.1423 16.8104 77.955 17.109C77.8042 17.4072 77.5344 29.5373 77.4073 44.1137L77.16 70.5961L73.04 70.4157C70.78 70.2905 67.7895 70.2098 66.3664 70.2244L63.812 70.2505L64.9217 69.312C66.2158 68.2603 66.948 68.1045 66.9348 68.9205C66.9221 69.6995 67.902 70.0232 68.5679 69.4601C69.2337 68.897 69.3681 65.1128 68.9095 57.4035C68.774 54.5121 68.594 47.6158 68.5365 42.1647L68.443 32.1893L66.9827 32.2413C65.157 32.3342 54.0766 33.8938 52.0624 34.3595C51.2566 34.5531 50.4854 34.8577 50.3 35.0451C49.892 35.4572 49.907 34.5299 49.732 49.8114C49.623 56.5252 49.5026 63.9437 49.4659 66.2064L49.3979 70.3979L45.8218 70.4344L42.2091 70.4714L42.184 58.5297C42.152 49.2584 42.0147 46.4783 41.6558 46.1111C41.2616 45.6701 40.4217 45.7158 36.6188 46.2368C34.132 46.596 31.4256 46.9945 30.6216 47.0769C29.817 47.1964 28.9382 47.3908 28.6797 47.5789C28.3112 47.8052 28.1219 50.4774 27.8662 59.492C27.6532 65.8731 27.4582 71.1414 27.4211 71.1789C27.3469 71.2538 25.2657 71.3493 22.7466 71.4492L18.1828 71.6442L18.0447 64.4137C17.9632 60.4463 17.7977 52.6598 17.7043 47.1719C17.4953 37.5686 16.259 5.83506 15.9835 2.57424C15.7935 0.796028 15.2862 0.578695 14.7154 2.03091ZM111.096 11.8747C109.179 13.044 104.463 15.8737 104.206 15.9876C104.022 16.0636 103.927 15.2116 103.945 14.0617C103.976 12.2071 104.052 11.9838 104.821 11.7905C105.993 11.5189 107.894 11.314 110.194 11.2534L112.202 11.1587L111.096 11.8747ZM114.7 12.32C114.802 12.8011 114.893 13.9498 114.878 14.8771L114.851 16.5463L112.718 17.5695C111.541 18.1378 109.149 19.4232 107.38 20.4797C105.613 21.4991 103.993 22.3687 103.811 22.3705C103.592 22.3728 103.461 21.4099 103.481 20.2229L103.515 18.1086L106.572 16.3343C108.23 15.316 110.589 13.8455 111.806 13.0542C113.024 12.2258 114.129 11.547 114.239 11.5459C114.385 11.5073 114.562 11.8763 114.7 12.32ZM91.5431 20.6416C91.4717 22.7934 91.1301 34.8501 90.8166 47.4257L90.1891 70.3516L84.5695 70.4091L78.9498 70.4666L78.987 63.6793C79.0107 59.9704 79.1644 48.2495 79.3372 37.6038L79.6137 18.3159L84.186 17.6016C86.7099 17.2049 89.0143 16.8476 89.3074 16.7704C89.6005 16.6932 90.2574 16.6865 90.7682 16.6813L91.6793 16.7462L91.5431 20.6416ZM115.158 20.1035L115.12 22.4403L109.711 25.2771C106.73 26.8282 104.191 28.1522 104.007 28.2282C103.86 28.3039 103.729 27.3781 103.749 26.154C103.785 23.9655 103.785 23.9655 105.182 23.3208C105.954 22.942 108.421 21.5817 110.632 20.2239C112.842 18.9033 114.757 17.8082 114.94 17.8063C115.086 17.8049 115.178 18.8423 115.158 20.1035ZM115.378 26.7397L115.387 28.4456L111.448 30.637C109.24 31.8092 106.771 33.2808 105.886 33.8833C105 34.4857 104.153 34.9765 103.934 34.9787C103.752 34.9806 103.623 33.9064 103.644 32.6082L103.682 30.2713L107.104 28.4933C108.945 27.5102 111.485 26.0749 112.702 25.2836C115.209 23.6633 115.39 23.7727 115.378 26.7397ZM115.307 33.379L115.262 36.161L112.026 37.7517C110.26 38.6227 107.682 40.0955 106.281 41.037C104.879 41.9785 103.662 42.7697 103.625 42.7701C103.553 42.7709 103.5 41.5104 103.525 39.9896L103.57 37.2077L105.523 36.0009C106.556 35.3228 109.1 33.665 111.129 32.272C113.527 30.6899 114.925 29.9338 115.067 30.192C115.209 30.4131 115.332 31.8582 115.307 33.379ZM66.0205 35.3293C66.0127 35.8116 64.7928 36.7883 62.0642 38.5593C59.8524 39.9541 56.7151 42.1743 55.052 43.4893C53.3894 44.7673 51.9506 45.7462 51.8429 45.6361C51.5558 45.3423 51.6308 42.968 51.9037 41.8897C52.0575 41.406 52.7617 40.7312 53.6818 40.2397C54.4912 39.8235 56.481 38.6163 58.067 37.5617C61.2754 35.452 63.0755 34.6919 64.8642 34.6365C65.7765 34.6272 66.0295 34.773 66.0205 35.3293ZM59.2612 35.9177C58.855 36.2185 57.0871 37.2379 55.357 38.1828L52.154 39.9586L52.0339 38.3651C51.9383 37.5131 51.988 36.6967 52.0999 36.5472C52.3601 36.2478 56.4209 35.5759 58.5386 35.48C59.8529 35.4295 59.9253 35.4658 59.2612 35.9177ZM66.243 41.8543L66.2494 43.7086L64.2979 44.8041C61.4987 46.4274 57.589 49.0264 54.56 51.3196C53.0829 52.4102 51.8278 53.3132 51.7913 53.3135C51.5723 53.3158 51.9193 47.6751 52.1418 47.4503C52.2537 47.3008 55.3928 44.9693 59.0853 42.2613L65.8055 37.3342L66.0393 38.667C66.1732 39.4073 66.2598 40.8157 66.243 41.8543ZM115.5 41.7586L115.5 43.9838L113.771 44.8545C111.418 45.9911 105.19 49.7635 104.376 50.4765C104.006 50.7769 103.708 51.1879 103.705 51.3734C103.692 52.1524 105.382 51.4304 109.547 48.8289C112.017 47.2831 114.376 45.8125 114.78 45.623C115.443 45.2453 115.477 45.3933 115.426 48.5462L115.372 51.8475L110.884 54.1186C108.383 55.368 105.659 56.8422 104.811 57.4072L103.226 58.3877L103.342 51.2288L103.459 44.0328L104.744 43.5375C105.992 43.0797 106.803 42.5522 112.303 38.6389L115.071 36.6821L115.304 38.089C115.437 38.8665 115.52 40.4975 115.5 41.7586ZM66.1681 48.7161L66.1079 52.4254L63.496 53.7502C62.0608 54.5066 58.8535 56.542 56.3079 58.2741C53.7617 60.0432 51.6224 61.4743 51.5129 61.4755C51.4399 61.4762 51.4269 60.0299 51.4923 58.2491L51.6547 54.9838L55.1605 52.5373C57.0804 51.1455 60.1811 48.9257 61.9915 47.535C63.8377 46.181 65.5344 45.051 65.7898 45.0484C66.1188 45.008 66.2127 45.9713 66.1681 48.7161ZM39.8139 58.4427C39.7595 64.0434 39.7141 69.0876 39.7051 69.644L39.7247 70.6822L34.2857 70.8491L28.8467 71.016L29.1732 66.6364C29.3218 64.2243 29.6208 59.2887 29.8251 55.6892L30.1506 49.1215L32.382 48.7649C33.6257 48.5668 35.8182 48.3589 37.2784 48.3069L39.9064 48.2429L39.8139 58.4427ZM66.3618 61.509L66.4302 66.2925L63.5519 68.2876L60.6372 70.283L55.9298 70.3311L51.2225 70.3792L51.279 66.8925L51.3356 63.4058L53.8411 61.8967C55.2045 61.0668 58.4878 58.8451 61.1082 57.0011L65.9062 53.6142L66.0999 55.1699C66.2326 55.9845 66.3322 58.8391 66.3618 61.509ZM115.307 55.8906L115.26 58.7838L111.287 60.7901C109.117 61.8507 106.464 63.4354 105.393 64.2623C104.321 65.0892 103.362 65.7665 103.289 65.7673C103.179 65.7684 103.126 64.5451 103.15 63.0614L103.194 60.3536L108.836 56.6985C111.896 54.7016 114.659 53.0786 114.915 53.0389C115.207 53.036 115.34 53.8505 115.307 55.8906ZM115.555 63.0458L115.508 65.9761L113.777 66.9952C112.782 67.5616 111.049 68.692 109.905 69.4825C107.95 70.8005 107.62 70.9151 105.175 70.9401C102.657 70.9659 102.585 70.9295 102.817 70.1113C102.934 69.665 103.058 68.7737 103.068 68.1431C103.083 67.1787 103.307 66.8797 104.189 66.4998C104.777 66.2342 107.393 64.6869 109.973 63.0658C112.59 61.4443 114.91 60.1225 115.166 60.0828C115.458 60.0799 115.59 60.8944 115.555 63.0458ZM115.811 69.793L115.786 71.3138L114.44 71.0679C113.676 70.9645 112.583 70.8644 111.962 70.8707C110.941 70.8812 110.978 70.8066 113.044 69.4133C114.262 68.5849 115.366 67.9803 115.547 68.0897C115.691 68.1995 115.824 68.9769 115.811 69.793Z" stroke="black" stroke-width="2" mask="url(#path-1-outside-1_10_440)"/>
</svg>
