<svg width="108" height="85" viewBox="0 0 108 85" fill="none" xmlns="http://www.w3.org/2000/svg">
<path d="M0.615916 33.1101L0.653671 33.2401L6.9152 54.7961C10.4838 67.1785 12.3882 73.6614 13.8393 77.2548C14.5663 79.0553 15.1973 80.1779 15.8978 80.9625C16.6082 81.7581 17.3625 82.174 18.2495 82.6059L18.2499 82.6061C22.4254 84.6346 26.2545 84.4676 40.2663 82.0475L40.2666 82.0474C54.436 79.5896 65.031 77.0285 82.3854 71.8301C98.2912 67.099 99.1019 66.8215 102.06 64.8066C103.336 63.9473 104.17 63.3218 104.774 62.6491C105.391 61.9612 105.748 61.2476 106.119 60.2556C107.867 55.5977 107.812 51.11 106.028 40.3099L106.028 40.3086C104.104 28.8527 103.123 24.2461 101.133 17.1704L101.132 17.1673C99.5663 11.7336 98.1204 7.86557 96.6065 5.29628C95.0915 2.72499 93.4511 1.36085 91.4694 1.12735M0.615916 33.1101L73.5228 5.59881L73.3971 5.11486C73.3977 5.11473 73.3982 5.11459 73.3987 5.11446C79.4379 3.54612 83.5859 2.51067 86.3916 1.88712C87.7942 1.57542 88.8692 1.36486 89.6811 1.24226C90.4796 1.12169 91.0658 1.07905 91.4694 1.12735M0.615916 33.1101L0.648882 32.9789M0.615916 33.1101L0.648882 32.9789M91.4694 1.12735L91.4109 1.62392L91.4705 1.1275C91.4702 1.12745 91.4698 1.1274 91.4694 1.12735ZM0.648882 32.9789L1.22085 30.7012C1.22092 30.7009 1.22099 30.7006 1.22107 30.7004L0.648882 32.9789ZM63.3738 49.721L63.3761 49.7181C64.3278 48.5124 65.2334 47.4067 65.9221 46.5977C66.267 46.1926 66.5547 45.8652 66.7652 45.6378C66.8587 45.5369 66.9332 45.4598 66.9887 45.4057C67.0091 45.4083 67.0346 45.4122 67.0657 45.418C67.1933 45.4421 67.3675 45.4893 67.5901 45.5636C68.0338 45.7115 68.6247 45.9512 69.3383 46.2713C70.7627 46.9102 72.6366 47.8517 74.7217 48.9681C78.8904 51.2001 83.8745 54.1161 87.7467 56.6739C87.7474 56.6743 87.748 56.6747 87.7486 56.6751L88.0242 56.2579C90.2802 57.7718 93.1797 59.6412 94.5252 60.3846L63.3738 49.721ZM63.3738 49.721C62.1452 51.2543 61.1855 52.4387 60.3921 53.3382C59.6015 54.2346 58.9539 54.8743 58.3466 55.3005C57.7249 55.7368 57.1412 55.9526 56.4911 56.0008C55.8645 56.0472 55.2033 55.9347 54.4436 55.7727C53.0863 55.4984 50.0423 54.4314 47.7046 53.4831L47.7046 53.4832L47.6962 53.4796L43.7945 51.813L42.2933 53.8147C42.2926 53.8156 42.2919 53.8166 42.2912 53.8176C41.326 55.1431 38.1655 59.0609 35.2428 62.556L35.2427 62.5561C31.4222 67.1225 28.0657 71.2468 25.6785 74.2735C24.4845 75.7874 23.5355 77.0234 22.893 77.9015C22.5971 78.3058 22.3701 78.6289 22.2149 78.8659C22.2618 78.872 22.3134 78.8777 22.3702 78.883C22.8182 78.9246 23.4793 78.9269 24.3346 78.8885C26.0391 78.812 28.4438 78.5775 31.3002 78.2146C37.0095 77.4892 44.4852 76.2554 51.692 74.7677L51.6941 74.7672C62.5028 72.5849 77.8039 68.4205 87.2505 65.1093L87.2522 65.1087C89.7763 64.2339 92.0801 63.4103 93.7635 62.7842C94.6058 62.4708 95.2894 62.2082 95.7665 62.0139C95.8227 61.9911 95.8756 61.9693 95.9254 61.9486C95.8977 61.9263 95.8685 61.9032 95.8379 61.8793C95.4619 61.5856 94.9147 61.2088 94.2737 60.8169L63.3738 49.721ZM12.5194 21.7266C12.5201 21.7264 12.521 21.726 12.5217 21.7258L12.6962 22.1943L12.5194 21.7266ZM80.7845 7.81317L80.7812 7.81399C67.4284 11.1214 23.4753 23.5434 17.0114 25.7982C13.7118 26.9703 11.3225 27.8793 9.73741 28.5792C8.943 28.93 8.36684 29.2213 7.98371 29.46C7.86 29.5371 7.76236 29.6051 7.68699 29.6639C7.83873 29.7689 8.05371 29.9002 8.33505 30.0568C9.03472 30.4463 10.079 30.9568 11.4047 31.5585C14.0524 32.7601 17.7853 34.3089 22.0418 35.9555C27.8716 38.1795 35.8736 41.9896 48.6028 48.4507L48.604 48.4513L55.5905 52.0204L56.3767 51.1672C59.1302 47.9721 66.1487 38.7864 70.5237 32.6629C73.1062 29.0232 77.6039 22.2984 81.4421 16.423C83.3609 13.4857 85.1128 10.7637 86.3761 8.74894C87.0082 7.74092 87.5159 6.91323 87.8606 6.32518C87.8928 6.27026 87.9234 6.21764 87.9525 6.16735C87.5732 6.23649 87.0852 6.3344 86.5089 6.45747C85.0338 6.77248 83.0014 7.24786 80.7845 7.81317ZM101.738 52.187L101.738 52.187L101.738 52.1794C101.622 48.9182 100.365 41.4924 98.7765 33.8028C97.19 26.123 95.288 18.2511 93.8994 14.1106C93.3954 12.6163 92.8906 11.2466 92.4928 10.2466C92.316 9.80227 92.162 9.43512 92.0397 9.16419C91.9619 9.25202 91.8747 9.35462 91.779 9.47124C91.3815 9.9558 90.8683 10.6466 90.3415 11.4295L90.3416 11.4296L90.336 11.4375C89.2568 12.9766 84.328 20.1006 79.3648 27.2861C76.8838 30.8779 74.5895 34.2185 72.8948 36.7159C72.0472 37.9649 71.3507 39.0014 70.856 39.7526C70.6084 40.1285 70.4129 40.4306 70.2749 40.6511C70.2057 40.7617 70.1527 40.8488 70.1155 40.9131C70.0814 40.9719 70.0704 40.9948 70.0701 40.9946L70.0684 40.9987L70.0643 41.0084C70.0411 41.0624 70.0367 41.0904 70.0361 41.101C70.0423 41.1126 70.0682 41.1525 70.1559 41.2183C70.4174 41.4146 70.9669 41.6542 72.0117 41.9998L72.019 42.0023L72.0263 42.0049C72.7772 42.2794 74.9694 43.3473 77.8644 44.8329C80.7761 46.3272 84.436 48.2635 88.1477 50.2953C91.825 52.3081 95.214 54.1331 97.7001 55.4495C98.9434 56.108 99.9593 56.6383 100.672 57.0012C100.946 57.1408 101.173 57.2546 101.351 57.341C101.357 57.3154 101.363 57.2885 101.369 57.2603C101.447 56.9105 101.524 56.4165 101.589 55.8439C101.719 54.6984 101.794 53.2907 101.738 52.187ZM70.0363 41.106C70.0364 41.1064 70.0365 41.1054 70.0361 41.1031C70.0361 41.1048 70.0362 41.1057 70.0363 41.106ZM14.6582 38.5077L14.6541 38.5059C13.8693 38.161 13.098 37.8216 12.3648 37.499C10.0889 36.4978 8.1794 35.6577 7.37022 35.3105C7.40937 35.6989 7.52998 36.3505 7.77519 37.4045C8.39028 40.0484 9.73388 45.009 12.2327 54.1063L12.2332 54.1082C13.7196 59.6072 15.0869 64.7355 16.0885 68.574C16.5893 70.4931 16.9991 72.0912 17.2868 73.2525C17.4306 73.8329 17.5444 74.3065 17.624 74.6573C17.6988 74.9869 17.7546 75.2541 17.7637 75.3862C17.7831 75.6643 17.8589 75.9676 17.9671 76.2328C18.0795 76.5082 18.2053 76.6905 18.291 76.7675C18.319 76.7926 18.3406 76.8119 18.359 76.8278C18.3863 76.8088 18.4235 76.7801 18.4719 76.7373C18.5933 76.6299 18.7548 76.4613 18.9736 76.2039C19.8566 75.1652 21.4735 72.9236 24.75 68.3794C26.4443 66.0093 29.8443 61.7623 32.9641 58.0165C34.5257 56.1415 36.0212 54.3872 37.2027 53.0509C37.7931 52.3832 38.3076 51.8169 38.7141 51.3911C39.1026 50.9841 39.4343 50.6598 39.6416 50.5235L39.6533 50.5158L39.6654 50.5088C39.8269 50.4151 39.9604 50.3134 40.0586 50.2215C40.0526 50.2179 40.0466 50.2143 40.0404 50.2107C39.8056 50.0713 39.4643 49.8859 39.0387 49.6673C38.1895 49.2311 37.0281 48.6745 35.7641 48.1091L35.7641 48.1091L35.7583 48.1064L35.7578 48.1062C33.2049 46.9246 28.9498 44.955 26.278 43.7079C25.9538 43.5606 25.5942 43.3971 25.2061 43.2206C22.3388 41.9165 17.9141 39.904 14.6582 38.5077ZM6.97985 35.1483C6.98018 35.1488 6.98576 35.151 6.99561 35.1531C6.98445 35.149 6.97953 35.1479 6.97985 35.1483ZM40.2201 50.029C40.2201 50.0288 40.2192 50.0306 40.2179 50.0343C40.218 50.0339 40.2182 50.0336 40.2183 50.0333C40.2196 50.0306 40.2201 50.0292 40.2201 50.029ZM67.0617 45.3386C67.0611 45.3391 67.0602 45.3398 67.0593 45.3405C67.0711 45.3325 67.0727 45.3299 67.0617 45.3386Z" fill="#97A1F9" stroke="black"/>
</svg>
