<svg width="151" height="90" viewBox="0 0 151 90" fill="none" xmlns="http://www.w3.org/2000/svg">
<path d="M121.885 12.1525L121.891 12.148L121.897 12.1437C124.216 10.4331 128.13 7.99467 131.908 5.83688C135.67 3.68861 139.358 1.78329 141.221 1.16084C142.502 0.695555 143.75 0.472219 144.704 0.502979C145.176 0.518209 145.621 0.596922 145.966 0.776871C146.33 0.966276 146.627 1.30018 146.627 1.78356C146.627 2.32313 146.392 2.87512 146.003 3.43601C145.611 4.00169 145.031 4.62146 144.269 5.30693C142.744 6.67835 140.423 8.3697 137.22 10.4799L137.22 10.48L137.213 10.4842C133.081 13.114 128.131 16.4895 126.263 17.9086C124.101 19.6143 122.16 20.5372 120.69 20.5157C119.928 20.5046 119.265 20.2368 118.805 19.67C118.358 19.1184 118.156 18.3499 118.156 17.4381C118.156 16.4779 118.372 15.6946 118.977 14.8664C119.558 14.0707 120.494 13.2431 121.885 12.1525Z" fill="#FFBDDE" stroke="black"/>
<path d="M75.8784 37.5347C75.8781 39.2232 75.4863 40.7792 74.824 41.9307C74.1687 43.0699 73.1868 43.903 71.9916 43.903C71.3836 43.903 70.813 43.7971 70.249 43.5082C69.6911 43.2224 69.1706 42.7734 68.6354 42.1341C67.5767 40.8696 66.3864 38.7671 64.6966 35.4252C63.1093 32.2879 61.5084 29.8241 59.9427 28.0355C58.373 26.2422 56.8661 25.1587 55.4738 24.7263C54.1066 24.3017 52.8164 24.4929 51.6031 25.3245C50.3684 26.1707 49.1891 27.6991 48.1363 29.9894L48.1351 29.992C47.3514 31.6712 46.9225 32.8266 46.7171 34.0763C46.5108 35.3321 46.5254 36.7126 46.6754 38.8514C46.9705 42.8711 47.7157 45.7802 50.7811 50.4478C53.8724 55.1548 59.3033 61.6183 68.9818 72.7278C70.519 74.4899 72.0163 76.0993 73.1731 77.2561C73.7525 77.8356 74.2402 78.2951 74.6015 78.6022C74.7275 78.7093 74.8329 78.7934 74.9179 78.8559C75.0018 78.7478 75.1073 78.5977 75.2344 78.4037C75.5474 77.9256 75.9612 77.2262 76.4545 76.3457C77.4396 74.5872 78.7248 72.1367 80.125 69.3597C82.9255 63.8057 86.1757 56.9668 88.3906 51.7863L88.3927 51.7815C90.0479 48.0197 92.6868 42.2134 94.4264 38.8848C98.8473 30.1173 100.545 24.2482 100.693 18.2559C100.73 15.4733 100.395 13.1274 99.7896 11.3831C99.1785 9.62263 98.327 8.56836 97.4 8.19502C96.4991 7.85734 96.1544 7.76256 95.6167 7.87883C95.3199 7.94299 94.9531 8.07649 94.4171 8.31319C93.9352 8.52599 93.3406 8.81105 92.5627 9.18401C92.4793 9.22398 92.3938 9.26495 92.3062 9.30695C88.6009 11.1615 84.5056 15.8736 81.3141 21.3581C78.1259 26.837 75.9156 32.9562 75.8784 37.5347ZM75.8784 37.5347C75.8784 37.534 75.8784 37.5333 75.8784 37.5326H75.3784M75.8784 37.5347C75.8784 37.5353 75.8784 37.536 75.8784 37.5366L75.3784 37.5326M75.3784 37.5326C75.3784 40.7688 73.8732 43.403 71.9916 43.403C69.809 43.403 68.5296 41.8978 65.1428 35.1995C58.7455 22.5554 51.9719 20.4481 47.682 29.7806L75.3784 37.5326ZM69.5671 28.8707L71.915 23.8489L71.915 23.8488C76.3207 14.4298 83.2416 6.9661 91.3286 2.76971C93.0003 1.8943 95.102 1.50714 97.0781 1.56555C99.0459 1.62371 100.971 2.12677 102.252 3.11875L102.255 3.12097C102.837 3.57814 103.546 4.39427 104.223 5.32812C104.905 6.27002 105.58 7.36771 106.084 8.41435C106.812 9.90849 107.264 11.1218 107.519 12.6416C107.772 14.1477 107.827 15.9363 107.789 18.5737L107.789 18.5761C107.637 26.5211 106.083 31.3553 96.0062 54.1413C92.0901 63.0278 87.8824 72.7966 86.7596 75.7907C86.1885 77.3137 85.466 78.9486 84.7524 80.3569C84.0475 81.7479 83.3295 82.9614 82.7586 83.616C81.6121 84.9977 80.2454 85.8207 78.945 85.9712C77.6124 86.1254 76.3969 85.5614 75.6932 84.2861L75.6921 84.284C75.5137 83.9568 75.2019 83.6384 74.8347 83.4017C74.4638 83.1627 74.0869 83.0393 73.7979 83.0393C73.6384 83.0393 73.4845 82.99 73.3623 82.9404C73.2311 82.8872 73.0891 82.8135 72.9408 82.7268C72.6438 82.5531 72.2849 82.3051 71.8774 81.9987C71.0605 81.3845 70.0106 80.5068 68.8044 79.4428C66.3901 77.313 63.323 74.4131 60.1912 71.3237C53.9429 65.16 47.3767 58.1827 45.237 55.0496L45.235 55.0466C39.2819 46.1934 37.9656 35.7044 41.8033 26.7241L41.8039 26.7227C42.7582 24.5088 43.7477 22.8671 45.0302 21.5649C46.3147 20.2607 47.8649 19.3253 49.8975 18.4815C55.7781 16.0182 62.4748 19.0144 67.5805 26.1015L67.5811 26.1023L69.5671 28.8707ZM74.7797 79.0153C74.7673 79.0239 74.7661 79.027 74.7774 79.0173C74.7781 79.0168 74.7789 79.0161 74.7797 79.0153Z" fill="#FFBDDE" stroke="black"/>
<path d="M1.9157 30.8998C1.55062 30.7172 1.24085 30.5582 1.02032 30.4098C0.830694 30.2823 0.532341 30.0536 0.502335 29.6786C0.47234 29.3036 0.730446 29.0306 0.896489 28.8751C1.0912 28.6927 1.37311 28.4854 1.70466 28.2459C2.11085 27.9509 2.75024 27.7557 3.47785 27.6162C4.22661 27.4727 5.14426 27.3751 6.16532 27.3167C8.20902 27.2 10.7092 27.2385 13.1879 27.3993C15.6666 27.5601 18.1388 27.8443 20.1263 28.2232C21.1191 28.4125 22.0021 28.6275 22.7089 28.8667C23.3903 29.0972 23.9863 29.375 24.331 29.7303C24.8484 30.2485 25.1685 30.8114 25.2061 31.3952C25.245 31.9994 24.9753 32.5235 24.5245 32.9275C23.6598 33.7024 22.0544 34.1182 20.0609 34.1182C17.9439 34.1182 13.9364 33.6029 10.2282 32.9535C8.36802 32.6278 6.56974 32.2659 5.10548 31.9135C3.67495 31.5692 2.49706 31.2193 1.9157 30.8998Z" fill="#FFBDDE" stroke="black"/>
<path d="M130.141 36.1304L130.142 36.1303C139.12 35.642 144.085 35.4134 146.802 35.5659C148.141 35.6411 149.038 35.811 149.601 36.1635C149.903 36.3525 150.113 36.5954 150.238 36.8914C150.358 37.1747 150.387 37.4749 150.387 37.7585C150.387 38.3675 149.995 38.83 149.412 39.1905C148.831 39.5497 147.96 39.8751 146.763 40.1981C144.359 40.8467 140.474 41.5276 134.531 42.3927L134.529 42.393C126.831 43.4819 122.166 44 119.424 43.8365C118.058 43.755 117.066 43.5013 116.416 42.9742C115.73 42.4174 115.52 41.6386 115.52 40.769C115.52 40.0068 115.768 39.3325 116.347 38.769C116.906 38.2258 117.741 37.8154 118.861 37.4859C121.097 36.8274 124.69 36.4311 130.141 36.1304Z" fill="#FFBDDE" stroke="black"/>
<path d="M14.834 59.7693L14.834 59.7693L14.8294 59.7704C11.9988 60.4498 9.80671 60.8003 8.30601 60.8003C7.56262 60.8003 6.93147 60.7153 6.46844 60.4995C6.23072 60.3887 6.01757 60.2343 5.86395 60.0206C5.7067 59.8018 5.63281 59.5497 5.63281 59.2843C5.63281 58.0927 6.5919 57.0599 8.15786 56.1013C9.76 55.1206 12.1746 54.1091 15.4577 53.0147C20.203 51.433 24.1913 50.5775 26.3962 50.6563L26.3998 50.6564C28.1921 50.7335 29.5154 51.1053 30.3439 51.7045C30.7642 52.0085 31.0702 52.3812 31.2262 52.8131C31.3835 53.2484 31.3742 53.705 31.2273 54.1458C30.9402 55.0069 30.1365 55.8006 29.0022 56.4299C27.8535 57.0673 26.3043 57.5721 24.412 57.8231L24.412 57.8232L24.4035 57.8241C22.4802 58.0461 18.1408 58.9426 14.834 59.7693Z" fill="#FFBDDE" stroke="black"/>
<path d="M126.578 59.6422L126.578 59.6422L126.581 59.6434C129.822 60.8635 132.411 62.5579 133.644 64.0012C133.954 64.365 134.197 64.7338 134.336 65.0947C134.474 65.4554 134.524 65.8526 134.373 66.2258C134.219 66.606 133.898 66.8606 133.505 67.0142C133.119 67.1655 132.629 67.2344 132.05 67.2344C131.08 67.2344 129.509 67.0294 127.707 66.7142C125.894 66.397 123.815 65.9622 121.812 65.49C119.811 65.018 117.88 64.507 116.365 64.0368C115.608 63.8019 114.948 63.575 114.431 63.3659C114.174 63.2615 113.945 63.1589 113.756 63.0592C113.577 62.9655 113.406 62.8602 113.277 62.7415C112.861 62.3817 112.519 62.0544 112.279 61.7371C112.035 61.4133 111.867 61.0633 111.86 60.6662C111.852 60.2717 112.005 59.9124 112.232 59.5725C112.457 59.2357 112.782 58.8779 113.182 58.4783C113.678 57.9824 114.398 57.6901 115.239 57.5443C116.085 57.3975 117.1 57.3908 118.243 57.5065C120.528 57.738 123.394 58.467 126.578 59.6422Z" fill="#FFBDDE" stroke="black"/>
<path d="M31.1022 77.3437L31.1026 77.3433C33.9618 74.8979 36.1055 73.3606 37.761 72.6965C38.5957 72.3616 39.3515 72.2296 40.0355 72.352C40.7307 72.4764 41.2902 72.8523 41.7451 73.4128C42.0879 73.8081 42.2598 74.285 42.2477 74.8274C42.236 75.3572 42.0499 75.9251 41.7281 76.5286L41.7281 76.5286L41.7258 76.5327C41.6413 76.6878 41.5042 76.8608 41.3501 77.0351C41.1899 77.2163 40.9882 77.4245 40.7537 77.6535C40.2845 78.1119 39.6682 78.6695 38.9567 79.2864C37.5328 80.5211 35.7103 82.0083 33.8809 83.4417C32.0516 84.8749 30.2098 86.2588 28.7468 87.2862C28.0162 87.7993 27.3737 88.2279 26.8716 88.5302C26.6213 88.6808 26.3974 88.8053 26.2101 88.8936C26.1165 88.9378 26.0243 88.9766 25.9374 89.0053C25.858 89.0316 25.7489 89.061 25.6324 89.061C25.155 89.061 24.7678 88.8306 24.4928 88.4969C24.2257 88.173 24.0565 87.747 23.9661 87.295C23.7851 86.3898 23.8935 85.2506 24.3468 84.2203L24.3468 84.2202L24.3505 84.2121C24.4956 83.8976 24.8113 83.4791 25.2053 83.0183C25.6112 82.5435 26.1379 81.9813 26.7451 81.3694C27.9599 80.1451 29.5128 78.7059 31.1022 77.3437Z" fill="#FFBDDE" stroke="black"/>
</svg>
